<svg width="173" height="117" viewBox="0 0 173 117" fill="none" xmlns="http://www.w3.org/2000/svg">
<path d="M17.766 61.218C16.7658 61.1189 15.4774 60.335 14.8016 59.2537L15.3152 58.6771C16.1982 59.9385 16.7478 60.335 17.7209 60.4972C18.3517 60.5963 18.8653 60.4431 19.2527 60.1277C19.6402 59.7943 19.8564 59.4159 19.8924 58.9834C19.9375 58.5419 19.8384 58.1544 19.5591 57.8211C19.2888 57.4787 18.7391 57.0732 17.9012 56.6047C17.1443 56.1902 16.5676 55.8208 16.1982 55.5144C15.8017 55.199 15.4954 54.8116 15.3152 54.3521C15.1169 53.8925 15.0449 53.424 15.0989 52.9374C15.189 52.1806 15.5134 51.5769 16.0901 51.1353C16.6667 50.6938 17.3515 50.5226 18.1354 50.6037C18.5679 50.6488 18.9824 50.7569 19.3518 50.9461C19.7393 51.1354 20.0997 51.4868 20.5502 52.1085L19.9465 52.595C19.7573 52.2977 19.6762 52.1806 19.5771 52.0634C19.1896 51.6219 18.7031 51.3606 18.1444 51.3065C17.5858 51.2525 17.1983 51.3606 16.946 51.5949C16.6757 51.8652 16.5135 52.1535 16.4865 52.4779C16.4415 52.8744 16.5586 53.2348 16.8289 53.5501C17.1172 53.8835 17.6579 54.298 18.5048 54.7846C19.3248 55.2531 19.9105 55.6315 20.2619 55.9019C20.6493 56.1902 20.9377 56.5596 21.1359 57.0191C21.3341 57.4877 21.4062 58.0103 21.3521 58.5689C21.253 59.4429 20.8836 60.1457 20.2258 60.6413C19.5681 61.1459 18.7391 61.3261 17.766 61.218Z" fill="#243066"/>
<path d="M25.4788 61.4419C25.1455 61.4419 24.8391 61.3428 24.5778 61.1445C24.3165 60.9463 24.1633 60.703 24.0912 60.4147C24.0192 60.1534 24.0011 59.7299 24.0011 59.1262V56.3961H23.2443V55.7563H24.0011V54.1435H25.2536V55.7563H26.8124V56.3961H25.2536V59.3154C25.2536 59.802 25.2806 60.0993 25.3076 60.2435C25.3347 60.3696 25.4068 60.4597 25.5059 60.5408C25.623 60.6129 25.7221 60.658 25.8393 60.658C26.0645 60.658 26.2718 60.5318 26.5691 60.0723L27.0557 60.3696C26.8394 60.8112 26.6232 61.0544 26.3438 61.2166C26.0645 61.3698 25.7852 61.4419 25.4788 61.4419Z" fill="#243066"/>
<path d="M32.9755 61.2887V60.6129C32.516 61.1445 31.9123 61.4419 31.2005 61.4419C30.8311 61.4419 30.4887 61.3518 30.2003 61.1806C29.912 61.0094 29.6958 60.7931 29.5876 60.5228C29.4705 60.2615 29.4164 59.8921 29.4164 59.4326V57.6755V55.7473H30.6869V59.4866C30.6869 59.847 30.7049 60.0723 30.741 60.2165C30.768 60.3156 30.8401 60.4327 30.9843 60.5318C31.1284 60.6219 31.2816 60.676 31.4888 60.676C31.7591 60.676 32.0295 60.5859 32.3088 60.3877C32.5791 60.1894 32.7503 59.9912 32.8404 59.784C32.9395 59.5857 32.9936 59.2794 32.9936 58.8559V57.6845V55.7563H34.237V59.3064V61.2977H32.9755V61.2887Z" fill="#243066"/>
<path d="M41.4543 52.2513H41.6435H42.4725V61.4419H41.2111V60.8382C40.7966 61.2707 40.265 61.4419 39.6613 61.4419C38.8413 61.4419 38.1565 61.1536 37.6429 60.5859C37.1113 60.0092 36.9401 59.3695 36.9401 58.5225C36.9401 57.7026 37.0933 56.9367 37.6249 56.36C38.1295 55.8194 38.7873 55.5311 39.5712 55.5311C40.1749 55.5311 40.7155 55.7563 41.202 56.1167V52.2513H41.4543ZM41.2111 56.9457C40.8146 56.5492 40.328 56.2159 39.7333 56.2159C39.2918 56.2159 38.9494 56.4051 38.6701 56.7475C38.4088 57.1079 38.2737 57.6485 38.2737 58.3964C38.2737 59.2163 38.4268 59.802 38.7152 60.1984C39.0035 60.5949 39.3729 60.8021 39.8595 60.8021C40.1749 60.8021 40.4362 60.703 40.6614 60.5318C40.8867 60.3426 41.13 60.1714 41.202 59.9732V56.9457H41.2111Z" fill="#243066"/>
<path d="M46.0586 54.0443C45.8334 54.0443 45.6261 53.9542 45.4549 53.783C45.3017 53.6119 45.2116 53.4136 45.2116 53.1703C45.2116 52.9451 45.3017 52.7378 45.4549 52.5847C45.6261 52.4135 45.8243 52.3234 46.0586 52.3234C46.3019 52.3234 46.5001 52.4135 46.6623 52.5847C46.8155 52.7378 46.9056 52.9451 46.9056 53.1703C46.9056 53.4136 46.8155 53.6119 46.6623 53.783C46.5001 53.9542 46.3019 54.0443 46.0586 54.0443ZM45.4099 61.2256V59.2343V57.6485V57.5584V55.3869H46.365H46.6984V58.3063V59.2343V61.2256H45.4099Z" fill="#243066"/>
<path d="M52.0956 61.4419C51.3387 61.4419 50.681 61.1716 50.1494 60.64C49.6087 60.0993 49.3294 59.3695 49.3294 58.4775C49.3294 57.6485 49.5997 56.9457 50.1313 56.3871C50.6629 55.8104 51.3207 55.5311 52.0956 55.5311C52.8705 55.5311 53.5282 55.8194 54.0689 56.3871C54.6005 56.9637 54.8528 57.6575 54.8528 58.4775C54.8528 59.3785 54.5825 60.1083 54.0328 60.649C53.5102 61.1806 52.8525 61.4419 52.0956 61.4419ZM52.0956 56.1798C51.6271 56.1798 51.2937 56.351 51.0504 56.6844C50.8071 57.0268 50.6089 57.6395 50.6089 58.5135C50.6089 59.3965 50.8071 60.0002 51.0684 60.3336C51.3117 60.649 51.6451 60.8021 52.0956 60.8021C52.5641 60.8021 52.8975 60.649 53.1408 60.3336C53.3841 60.0002 53.5823 59.4146 53.5823 58.5135C53.5823 57.6395 53.3841 57.0358 53.1408 56.6844C52.8975 56.351 52.5641 56.1798 52.0956 56.1798Z" fill="#243066"/>
<path d="M66.0887 61.0094C65.476 61.1626 64.6561 61.2256 63.6559 61.2256H61.106V50.5663H63.3495C66.1428 50.5663 67.7106 51.3683 67.7106 53.1523C67.7106 53.8642 67.4493 54.4588 66.9267 54.8823C66.6113 55.1526 66.1788 55.3689 65.6652 55.5221C66.368 55.6662 66.9357 55.9185 67.3502 56.297C67.9539 56.8286 68.2512 57.4863 68.2512 58.2702C68.2512 58.955 68.053 59.5587 67.6385 60.0633C67.251 60.5589 66.7194 60.8742 66.0887 61.0094ZM64.9264 51.5124C64.656 51.3683 64.1785 51.2872 63.4216 51.2872C63.2775 51.2872 63.0882 51.3052 62.9351 51.3052V55.2518C63.0071 55.2698 63.0882 55.2698 63.1333 55.2698C64.2236 55.2698 64.8903 55.0806 65.2327 54.8012C65.5751 54.5039 65.7643 54.0173 65.7643 53.2695C65.7643 52.7559 65.6742 52.3684 65.5481 52.1251C65.4129 51.8548 65.2147 51.6566 64.9264 51.5124ZM63.4036 55.9636C63.2775 55.9636 63.0882 55.9636 62.9441 55.9636V60.4237H64.0614C64.8633 60.4237 65.3949 60.3246 65.7373 59.9642C66.0977 59.5948 66.2959 59.0361 66.2959 58.2342C66.2959 57.4142 66.0797 56.8646 65.6652 56.5042C65.2597 56.1618 64.5299 55.9636 63.4036 55.9636Z" fill="#243066"/>
<path d="M73.9638 60.9734V60.631C73.6485 60.8292 73.3511 61.0004 73.0628 61.1356C72.7024 61.2887 72.36 61.3788 72.0627 61.3788C71.2878 61.3788 70.7021 60.4958 70.7021 59.9732C70.7021 59.4867 70.8282 59.1533 71.3058 58.8019C71.7473 58.4685 72.333 58.1441 73.0989 57.8287L73.9729 57.4863V57.3422C73.9729 56.9818 73.9458 56.7565 73.9188 56.6123C73.8918 56.5132 73.8017 56.3961 73.6305 56.279C73.4773 56.1798 73.261 56.1258 72.9547 56.1258C72.4861 56.1258 72.2068 56.2249 71.8554 56.4862L71.3869 56.0177C71.9455 55.6572 72.4141 55.5041 73.0898 55.5041C73.6485 55.5041 74.09 55.5942 74.4324 55.7744C74.7478 55.9636 74.973 56.1708 75.0901 56.4321C75.1893 56.6934 75.2433 57.0448 75.2433 57.4954V59.5858V61.3878C75.2433 61.3878 75.0271 61.3698 73.9729 61.3698V60.9734H73.9638ZM73.9638 58.1531L73.5223 58.3423C72.4501 58.7748 72.0086 59.2884 72.0086 59.8471C72.0086 60.0723 72.0627 60.2435 72.1618 60.3787C72.2789 60.4958 72.4051 60.5499 72.5762 60.5499C73.0358 60.5499 73.6215 60.1354 73.9638 59.8651V58.1531Z" fill="#243066"/>
<path d="M79.4151 60.5679H82.6769V61.0364L82.4877 60.8472C82.4877 61.2166 77.7122 61.2166 77.7122 61.2166V60.7751L81.019 56.2519H77.9284V55.5941H82.7039V56.0627L79.4151 60.5679Z" fill="#243066"/>
<path d="M86.5333 60.5679H89.795V61.0364L89.6058 60.8472C89.6058 61.2166 84.8303 61.2166 84.8303 61.2166V60.7751L88.1371 56.2519H85.0466V55.5941H89.8221V56.0627L86.5333 60.5679Z" fill="#243066"/>
<path d="M94.3183 61.4419C93.5614 61.4419 92.9037 61.1716 92.3721 60.64C91.8314 60.0993 91.5521 59.3695 91.5521 58.4775C91.5521 57.6485 91.8224 56.9457 92.3541 56.3871C92.8857 55.8104 93.5434 55.5311 94.3183 55.5311C95.0932 55.5311 95.751 55.8194 96.2916 56.3871C96.8232 56.9637 97.0755 57.6575 97.0755 58.4775C97.0755 59.3785 96.8052 60.1083 96.2556 60.649C95.742 61.1806 95.0752 61.4419 94.3183 61.4419ZM94.3183 56.1798C93.8498 56.1798 93.5164 56.351 93.2731 56.6844C93.0298 57.0268 92.8316 57.6395 92.8316 58.5135C92.8316 59.3965 93.0298 60.0002 93.2911 60.3336C93.5344 60.649 93.8678 60.8021 94.3183 60.8021C94.7869 60.8021 95.1202 60.649 95.3635 60.3336C95.6068 60.0002 95.805 59.4146 95.805 58.5135C95.805 57.6395 95.6068 57.0358 95.3635 56.6844C95.1202 56.351 94.7959 56.1798 94.3183 56.1798Z" fill="#243066"/>
<path d="M110.429 61.2256C109.843 59.766 109.609 59.2253 109.609 59.2253L108.861 57.4323H105.329L103.869 61.2256H102.95L107.356 50.5663H107.888L112.411 61.2256H110.429ZM107.068 53.0532L105.581 56.7475H108.6L107.068 53.0532Z" fill="#243066"/>
<path d="M114.565 60.4237L114.691 60.3336L114.907 60.622C114.889 60.64 114.889 60.64 114.574 60.9644L114.565 60.4237ZM115.952 61.4239C115.439 61.3248 115.024 61.0274 114.619 60.3967L115.15 60.0363C115.421 60.5409 115.691 60.7391 116.051 60.8112C116.322 60.8562 116.52 60.8112 116.655 60.694C116.826 60.5679 116.916 60.4057 116.952 60.2255C116.997 60.0093 116.97 59.8291 116.853 59.6669C116.736 59.4957 116.484 59.2344 116.033 58.91C115.574 58.5496 115.231 58.2252 115.042 57.9098C114.844 57.5765 114.781 57.225 114.853 56.8376C114.943 56.4682 115.141 56.1348 115.466 55.8465C115.808 55.5581 116.223 55.459 116.7 55.5581C117.169 55.6482 117.529 55.9185 117.862 56.4772L117.331 56.8376C117.07 56.3961 116.862 56.2519 116.601 56.1979C116.403 56.1528 116.232 56.1798 116.096 56.288C115.943 56.3871 115.871 56.5042 115.835 56.6574C115.79 56.8286 115.835 56.9728 115.934 57.144C116.06 57.2971 116.304 57.5404 116.718 57.8468C117.358 58.2883 117.781 58.7208 117.889 59.1082C117.989 59.4686 118.016 59.811 117.944 60.1084C117.853 60.5949 117.61 60.9644 117.232 61.2076C116.871 61.4419 116.43 61.514 115.952 61.4239Z" fill="#243066"/>
<path d="M120.421 60.4237L120.548 60.3336L120.764 60.622C120.746 60.64 120.746 60.64 120.43 60.9644L120.421 60.4237ZM121.809 61.4239C121.295 61.3248 120.881 61.0274 120.475 60.3967L121.007 60.0363C121.277 60.5409 121.548 60.7391 121.908 60.8112C122.178 60.8562 122.377 60.8112 122.512 60.694C122.683 60.5679 122.773 60.4057 122.809 60.2255C122.854 60.0093 122.827 59.8291 122.71 59.6669C122.593 59.4957 122.341 59.2344 121.89 58.91C121.431 58.5496 121.088 58.2252 120.899 57.9098C120.701 57.5765 120.638 57.225 120.71 56.8376C120.8 56.4682 120.998 56.1348 121.322 55.8465C121.665 55.5581 122.079 55.459 122.557 55.5581C123.025 55.6482 123.386 55.9185 123.719 56.4772L123.188 56.8376C122.926 56.3961 122.719 56.2519 122.458 56.1979C122.26 56.1528 122.088 56.1798 121.953 56.288C121.8 56.3871 121.728 56.5042 121.692 56.6574C121.647 56.8286 121.692 56.9728 121.791 57.144C121.917 57.2971 122.16 57.5404 122.575 57.8468C123.215 58.2883 123.638 58.7208 123.746 59.1082C123.845 59.4686 123.872 59.811 123.8 60.1084C123.71 60.5949 123.467 60.9644 123.088 61.2076C122.71 61.4509 122.278 61.514 121.809 61.4239Z" fill="#243066"/>
<path d="M129.089 61.4419C128.333 61.4419 127.675 61.1716 127.143 60.64C126.603 60.0993 126.323 59.3695 126.323 58.4775C126.323 57.6485 126.594 56.9457 127.125 56.3871C127.657 55.8104 128.315 55.5311 129.089 55.5311C129.864 55.5311 130.522 55.8194 131.063 56.3871C131.594 56.9637 131.847 57.6575 131.847 58.4775C131.847 59.3785 131.576 60.1083 131.027 60.649C130.504 61.1806 129.846 61.4419 129.089 61.4419ZM129.089 56.1798C128.621 56.1798 128.287 56.351 128.044 56.6844C127.801 57.0268 127.603 57.6395 127.603 58.5135C127.603 59.3965 127.801 60.0002 128.062 60.3336C128.306 60.649 128.639 60.8021 129.089 60.8021C129.558 60.8021 129.891 60.649 130.135 60.3336C130.378 60.0002 130.576 59.4146 130.576 58.5135C130.576 57.6395 130.378 57.0358 130.135 56.6844C129.891 56.351 129.567 56.1798 129.089 56.1798Z" fill="#243066"/>
<path d="M135.018 60.658C134.478 60.1174 134.216 59.4146 134.216 58.5586C134.216 57.6846 134.478 56.9818 135.018 56.4591C135.55 55.9185 136.208 55.6572 136.992 55.6572C137.649 55.6572 138.19 55.8104 138.749 56.2699L138.316 56.7024C137.956 56.4411 137.658 56.342 137.253 56.342C136.676 56.342 136.298 56.5402 136.018 56.9457C135.757 57.3332 135.604 57.8648 135.604 58.5586C135.604 59.2434 135.757 59.775 136.018 60.1624C136.289 60.5589 136.676 60.7661 137.253 60.7661C137.649 60.7661 137.956 60.667 138.316 60.4057L138.749 60.8382C138.19 61.2977 137.649 61.4509 136.992 61.4509C136.208 61.4419 135.541 61.1806 135.018 60.658Z" fill="#243066"/>
<path d="M141.83 54.0443C141.605 54.0443 141.398 53.9542 141.226 53.783C141.073 53.6119 140.983 53.4136 140.983 53.1703C140.983 52.9451 141.073 52.7378 141.226 52.5847C141.398 52.4135 141.596 52.3234 141.83 52.3234C142.073 52.3234 142.272 52.4135 142.434 52.5847C142.587 52.7378 142.677 52.9451 142.677 53.1703C142.677 53.4136 142.587 53.6119 142.434 53.783C142.272 53.9542 142.073 54.0443 141.83 54.0443ZM141.181 61.2256V59.2343V57.6485V57.5584V55.3869H142.136H142.47V58.3063V59.2343V61.2256H141.181Z" fill="#243066"/>
<path d="M148.336 60.9734V60.631C148.02 60.8292 147.723 61.0004 147.435 61.1356C147.074 61.2887 146.732 61.3788 146.434 61.3788C145.66 61.3788 145.074 60.4958 145.074 59.9732C145.074 59.4867 145.2 59.1533 145.678 58.8019C146.119 58.4685 146.705 58.1441 147.471 57.8287L148.345 57.4863V57.3422C148.345 56.9818 148.318 56.7565 148.291 56.6123C148.264 56.5132 148.173 56.3961 148.002 56.279C147.849 56.1798 147.633 56.1258 147.326 56.1258C146.858 56.1258 146.579 56.2249 146.227 56.4862L145.759 56.0177C146.317 55.6572 146.786 55.5041 147.462 55.5041C148.02 55.5041 148.462 55.5942 148.804 55.7744C149.12 55.9636 149.345 56.1708 149.462 56.4321C149.561 56.6934 149.615 57.0448 149.615 57.4954V59.5858V61.3878C149.615 61.3878 149.399 61.3698 148.345 61.3698V60.9734H148.336ZM148.336 58.1531L147.894 58.3423C146.822 58.7748 146.38 59.2884 146.38 59.8471C146.38 60.0723 146.434 60.2435 146.534 60.3787C146.651 60.4958 146.777 60.5499 146.948 60.5499C147.408 60.5499 147.993 60.1354 148.336 59.8651V58.1531Z" fill="#243066"/>
<path d="M154.535 61.4419C154.201 61.4419 153.895 61.3428 153.634 61.1445C153.372 60.9463 153.219 60.703 153.147 60.4147C153.075 60.1534 153.057 59.7299 153.057 59.1262V56.3961H152.3V55.7563H153.057V54.1435H154.301V55.7563H155.859V56.3961H154.301V59.3154C154.301 59.802 154.328 60.0993 154.355 60.2435C154.382 60.3696 154.454 60.4597 154.553 60.5408C154.67 60.6129 154.769 60.658 154.886 60.658C155.111 60.658 155.319 60.5318 155.616 60.0723L156.103 60.3696C155.886 60.8112 155.67 61.0544 155.391 61.2166C155.12 61.3698 154.832 61.4419 154.535 61.4419Z" fill="#243066"/>
<path d="M159.301 54.0443C159.076 54.0443 158.869 53.9542 158.698 53.783C158.544 53.6119 158.454 53.4136 158.454 53.1703C158.454 52.9451 158.544 52.7378 158.698 52.5847C158.869 52.4135 159.067 52.3234 159.301 52.3234C159.545 52.3234 159.743 52.4135 159.905 52.5847C160.058 52.7378 160.148 52.9451 160.148 53.1703C160.148 53.4136 160.058 53.6119 159.905 53.783C159.743 53.9542 159.545 54.0443 159.301 54.0443ZM158.653 61.2256V59.2343V57.6485V57.5584V55.3869H159.608H159.941V58.3063V59.2343V61.2256H158.653Z" fill="#243066"/>
<path d="M8.215 9.62308C7.55724 10.3619 6.71927 10.7494 5.7011 10.7494C4.62886 10.7494 3.74584 10.407 3.06105 9.7312C2.38527 9.04641 2.04288 8.14537 2.04288 7.02808C2.04288 6.28923 2.19605 5.60444 2.51142 4.94668C2.82678 4.28892 3.25928 3.81137 3.83595 3.49601C4.39459 3.18064 5.01631 3.02747 5.69209 3.02747C6.25073 3.02747 6.75531 3.1446 7.20583 3.36986C7.64734 3.59512 7.98073 3.8384 8.20599 4.10871V4.14476L7.98974 4.35199C7.8726 4.17179 7.71943 4.01861 7.57526 3.90147C7.06167 3.50502 6.49401 3.30679 5.85427 3.30679C5.07037 3.30679 4.44865 3.63116 3.98912 4.26189C3.52959 4.89262 3.30433 5.79366 3.30433 6.97402C3.30433 8.09131 3.54761 8.9473 4.0522 9.55099C4.55678 10.1457 5.17849 10.443 5.92636 10.443C6.32281 10.443 6.72828 10.3439 7.15177 10.1547C7.49417 9.9925 7.77349 9.74922 7.99875 9.40683L8.215 9.62308Z" fill="#0E81AE"/>
<path d="M13.342 7.3525C13.7024 6.95604 14.1709 6.75781 14.7115 6.75781C15.2612 6.75781 15.7207 6.94703 16.0811 7.3525C16.4596 7.75797 16.6398 8.24453 16.6398 8.8302C16.6398 9.48796 16.4596 9.99254 16.0811 10.362C15.6937 10.7404 15.2432 10.9206 14.7115 10.9206C14.1709 10.9206 13.7204 10.7314 13.342 10.353C12.9635 9.97452 12.7833 9.46994 12.7833 8.8302C12.7833 8.24453 12.9635 7.74896 13.342 7.3525ZM13.8285 10.2899C14.0358 10.5692 14.3331 10.7044 14.7115 10.7044C15.099 10.7044 15.3963 10.5692 15.6036 10.2899C15.8108 10.0196 15.955 9.54202 15.955 8.84822C15.955 8.17244 15.8018 7.68588 15.6036 7.39755C15.3963 7.10922 15.099 6.96505 14.7115 6.96505C14.3241 6.96505 14.0268 7.10021 13.8195 7.39755C13.6123 7.68588 13.4681 8.17244 13.4681 8.84822C13.4681 9.54202 13.6123 10.0196 13.8285 10.2899Z" fill="#0E81AE"/>
<path d="M22.4875 6.64966V7.47861C22.7038 7.19929 22.9381 6.99205 23.1813 6.8569C23.4246 6.72174 23.6949 6.64966 23.9833 6.64966C24.3076 6.64966 24.578 6.72174 24.7672 6.87492C24.9744 7.01007 25.1096 7.23533 25.1997 7.53268C25.443 7.24434 25.6952 7.01908 25.9475 6.87492C26.2088 6.72174 26.4611 6.64966 26.7314 6.64966C27.0288 6.64966 27.2901 6.72174 27.5063 6.86591C27.7226 7.00106 27.8487 7.16325 27.8938 7.35247C27.9388 7.52367 27.9569 7.812 27.9569 8.21747V9.39783V10.7494H27.2721V9.39783V8.09132C27.2721 7.82101 27.2631 7.62278 27.227 7.48762C27.191 7.35247 27.1189 7.22632 26.9927 7.13622C26.8666 7.0371 26.6954 7.00106 26.4882 7.00106C26.2809 7.00106 26.0737 7.06414 25.8574 7.21731C25.6502 7.35247 25.443 7.56872 25.2357 7.84804V9.40684V10.7584H24.5419V9.40684V8.30757C24.5419 7.96518 24.5329 7.71288 24.4969 7.55971C24.4788 7.40653 24.3887 7.27138 24.2536 7.16325C24.1184 7.04612 23.9382 6.99205 23.74 6.99205C23.5508 6.99205 23.3435 7.05513 23.1273 7.18127C22.92 7.30742 22.7128 7.50565 22.4966 7.75794V9.39783V10.7494H21.8118V9.39783V8.21747V6.64966H22.4875Z" fill="#0E81AE"/>
<path d="M33.9758 6.64966V7.47861C34.192 7.19929 34.4263 6.99205 34.6696 6.8569C34.9129 6.72174 35.1832 6.64966 35.4715 6.64966C35.7959 6.64966 36.0662 6.72174 36.2554 6.87492C36.4627 7.01007 36.5978 7.23533 36.6879 7.53268C36.9312 7.24434 37.1835 7.01908 37.4358 6.87492C37.6971 6.72174 37.9494 6.64966 38.2197 6.64966C38.517 6.64966 38.7783 6.72174 38.9946 6.86591C39.2108 7.00106 39.337 7.16325 39.382 7.35247C39.4271 7.52367 39.4451 7.812 39.4451 8.21747V9.39783V10.7494H38.7603V9.39783V8.09132C38.7603 7.82101 38.7513 7.62278 38.7153 7.48762C38.6792 7.35247 38.6071 7.22632 38.481 7.13622C38.3549 7.0371 38.1837 7.00106 37.9764 7.00106C37.7692 7.00106 37.5619 7.06414 37.3457 7.21731C37.1384 7.35247 36.9312 7.56872 36.724 7.84804V9.40684V10.7584H36.0302V9.40684V8.30757C36.0302 7.96518 36.0212 7.71288 35.9851 7.55971C35.9671 7.40653 35.877 7.27138 35.7418 7.16325C35.6067 7.04612 35.4265 6.99205 35.2282 6.99205C35.039 6.99205 34.8318 7.05513 34.6155 7.18127C34.4083 7.30742 34.2011 7.50565 33.9848 7.75794V9.39783V10.7494H33.3V9.39783V8.21747V6.64966H33.9758Z" fill="#0E81AE"/>
<path d="M47.9238 10.2719C47.8157 10.425 47.6806 10.5512 47.5094 10.6593C47.221 10.8305 46.8877 10.9296 46.5453 10.9296C46.2119 10.9296 45.9145 10.8395 45.6082 10.6863C45.3198 10.5151 45.0856 10.2899 44.8964 9.99253C44.7161 9.69519 44.617 9.32576 44.617 8.90227C44.617 8.28956 44.7972 7.78498 45.1577 7.37951C45.5091 6.98306 45.9596 6.77582 46.5002 6.77582C47.0048 6.77582 47.4012 6.929 47.6716 7.23535C47.9509 7.53269 48.059 7.85707 48.059 8.2355H45.428C45.419 8.41571 45.41 8.55988 45.41 8.64097C45.41 9.31675 45.5181 9.83034 45.7343 10.1727C45.9416 10.5061 46.2569 10.6773 46.6804 10.6773C47.167 10.6773 47.5274 10.4971 47.7707 10.1187L47.9238 10.2719ZM45.437 8.02826H47.4914C47.4914 7.81201 47.3111 6.96504 46.4732 6.96504C45.8875 6.96504 45.5541 7.31644 45.437 8.02826Z" fill="#0E81AE"/>
<path d="M54.123 7.28039C53.9158 7.46059 53.7986 7.66783 53.7446 7.87507C53.6905 8.08231 53.6725 8.36163 53.6725 8.71304V9.40684V10.7584H52.9787V9.40684V8.28054V6.64966H53.6184V7.66783C53.8527 6.86591 54.6727 6.52351 55.2493 6.82987L55.1142 7.10919C54.7447 6.87492 54.4474 6.97403 54.123 7.28039Z" fill="#0E81AE"/>
<path d="M62.4756 10.4431L62.6108 10.5782C62.3315 10.8035 61.953 10.9206 61.4845 10.9206C60.9258 10.9206 60.4663 10.7314 60.0879 10.362C59.7275 9.98353 59.5292 9.49697 59.5292 8.88426C59.5292 8.26255 59.7184 7.76698 60.0879 7.38854C60.4663 7.02812 60.9258 6.8299 61.4845 6.8299C61.953 6.8299 62.3315 6.94703 62.6108 7.17229L62.4756 7.30745C62.2684 7.15427 62.0161 7.07318 61.6917 7.07318C61.2322 7.07318 60.8898 7.24437 60.6645 7.58677C60.4483 7.91114 60.3221 8.32562 60.3221 8.87525C60.3221 9.41588 60.4483 9.83036 60.6645 10.1547C60.8898 10.4971 61.2322 10.6683 61.6917 10.6683C62.0161 10.6773 62.2774 10.6053 62.4756 10.4431Z" fill="#0E81AE"/>
<path d="M67.7287 5.21702C67.6296 5.1179 67.5935 5.00077 67.5935 4.8566C67.5935 4.73046 67.6386 4.61332 67.7287 4.5052C67.8368 4.40608 67.9449 4.35202 68.0801 4.35202C68.2153 4.35202 68.3414 4.40608 68.4315 4.5052C68.5306 4.61332 68.5847 4.73046 68.5847 4.8566C68.5847 5.00978 68.5306 5.12691 68.4315 5.21702C68.3324 5.31613 68.2153 5.37019 68.0801 5.37019C67.9449 5.36118 67.8368 5.31613 67.7287 5.21702ZM68.3144 6.64967H68.4225V8.70404V9.39784V10.7494H67.7377V9.39784V8.20847C67.7377 8.19045 67.7377 8.16342 67.7377 8.1454V6.64967H68.3144Z" fill="#0E81AE"/>
<path d="M76.7391 8.08231V9.65012V10.8665C76.7391 10.8665 76.73 10.8665 76.0633 10.8665V10.7043V10.1817C75.7389 10.407 75.4506 10.5782 75.1983 10.6863C74.937 10.8035 74.7027 10.8575 74.5045 10.8575C74.0179 10.8575 73.6215 10.2808 73.6215 9.94746C73.6215 9.61408 73.6935 9.42486 74.0089 9.17257C74.3333 8.92929 74.7748 8.68601 75.3334 8.46075L76.0723 8.1634V7.97419C76.0723 7.70387 76.0543 7.51466 76.0182 7.39752C75.9732 7.28039 75.8921 7.17226 75.7389 7.07315C75.6037 6.97403 75.4055 6.93799 75.1712 6.93799C74.7928 6.93799 74.5585 7.01007 74.3513 7.15424C74.2792 7.08216 74.2792 7.08216 74.1891 7.00106C74.4504 6.83888 74.7928 6.72174 75.2614 6.72174C75.6668 6.72174 75.9822 6.78481 76.1984 6.91096C76.4237 7.0371 76.5769 7.18127 76.6399 7.34346C76.712 7.50565 76.7391 7.74893 76.7391 8.08231ZM76.0633 8.38866L75.5407 8.5959C74.7207 8.92929 74.3153 9.34377 74.3153 9.84835C74.3153 10.0556 74.3693 10.2088 74.4774 10.3349C74.5856 10.452 74.7117 10.5151 74.8829 10.5151C75.0361 10.5151 75.2073 10.4611 75.3965 10.3619C75.5857 10.2628 75.811 10.1187 76.0633 9.92043V8.38866Z" fill="#0E81AE"/>
<path d="M82.7941 10.7494H82.1003V9.39784V5.50535V4.13577H82.668C82.668 4.14478 82.677 4.14478 82.686 4.13577H82.7941V9.40685V10.7494Z" fill="#0E81AE"/>
<path d="M88.1463 5.21702C88.0471 5.1179 88.0111 5.00077 88.0111 4.8566C88.0111 4.73046 88.0562 4.61332 88.1463 4.5052C88.2544 4.40608 88.3625 4.35202 88.4977 4.35202C88.6328 4.35202 88.759 4.40608 88.8491 4.5052C88.9482 4.61332 89.0023 4.73046 89.0023 4.8566C89.0023 5.00978 88.9482 5.12691 88.8491 5.21702C88.75 5.31613 88.6328 5.37019 88.4977 5.37019C88.3625 5.36118 88.2544 5.31613 88.1463 5.21702ZM88.7409 6.64967H88.8491V8.70404V9.39784V10.7494H88.1643V9.39784V8.20847C88.1643 8.19045 88.1643 8.16342 88.1643 8.1454V6.64967H88.7409Z" fill="#0E81AE"/>
<path d="M94.0391 10.3439C94.0391 10.3529 94.0301 10.3529 94.0211 10.3619V10.3529L94.0391 10.3439ZM96.3097 10.0195C96.2466 10.3529 96.0844 10.5962 95.8231 10.7584C95.5618 10.9206 95.2735 10.9746 94.9401 10.9116C94.5977 10.8395 94.3184 10.6323 94.1022 10.2989L94.2734 10.1907C94.4265 10.4701 94.6608 10.6413 94.9671 10.7043C95.2014 10.7494 95.3816 10.7133 95.5258 10.5962C95.679 10.4791 95.7601 10.3259 95.7961 10.1637C95.8412 9.95648 95.8051 9.78528 95.706 9.64111C95.6069 9.48794 95.3816 9.28971 95.0663 9.03742C94.7239 8.77611 94.4896 8.53283 94.3544 8.31658C94.2283 8.10934 94.1832 7.87507 94.2373 7.60476C94.2824 7.36148 94.4175 7.14523 94.6428 6.947C94.859 6.75779 95.1383 6.6857 95.4627 6.75779C95.7781 6.82086 96.0124 6.99206 96.1745 7.27138L96.0033 7.38851C95.8682 7.15424 95.679 7.01008 95.4357 6.97403C95.2555 6.92898 95.0933 6.96502 94.9671 7.04612C94.832 7.14523 94.7419 7.26237 94.7059 7.40653C94.6698 7.57773 94.7149 7.73091 94.814 7.87507C94.9221 8.01023 95.1293 8.20846 95.4357 8.43372C95.9042 8.7671 96.1836 9.06445 96.2646 9.31674C96.3277 9.58705 96.3457 9.82132 96.3097 10.0195Z" fill="#0E81AE"/>
<path d="M101.977 6.91094V5.71255H102.653V6.91094H103.815V7.12719H102.653V9.45187C102.653 9.81228 102.662 10.0556 102.698 10.1817C102.734 10.2988 102.797 10.407 102.905 10.4791C103.004 10.5511 103.113 10.5872 103.23 10.5872C103.455 10.5872 103.662 10.461 103.824 10.1997L103.978 10.2988C103.878 10.5061 103.743 10.6503 103.545 10.7584C103.356 10.8665 103.158 10.9206 102.968 10.9206C102.743 10.9206 102.554 10.8575 102.374 10.7133C102.202 10.5872 102.094 10.425 102.049 10.2538C102.004 10.0736 101.986 9.75822 101.986 9.3077V7.12719H101.428V6.91094H101.977Z" fill="#0E81AE"/>
<path d="M109.131 5.21702C109.032 5.1179 108.996 5.00077 108.996 4.8566C108.996 4.73046 109.041 4.61332 109.131 4.5052C109.24 4.40608 109.348 4.35202 109.483 4.35202C109.618 4.35202 109.744 4.40608 109.834 4.5052C109.933 4.61332 109.987 4.73046 109.987 4.8566C109.987 5.00978 109.933 5.12691 109.834 5.21702C109.735 5.31613 109.618 5.37019 109.483 5.37019C109.348 5.36118 109.24 5.31613 109.131 5.21702ZM109.726 6.64967H109.834V8.70404V9.39784V10.7494H109.149V9.39784V8.20847C109.149 8.19045 109.149 8.16342 109.149 8.1454V6.64967H109.726Z" fill="#0E81AE"/>
<path d="M6.37689 115.036C5.71913 115.775 4.88117 116.162 3.86299 116.162C2.79076 116.162 1.90774 115.82 1.22295 115.144C0.547168 114.459 0.204773 113.558 0.204773 112.441C0.204773 111.702 0.35795 111.017 0.673313 110.359C0.988677 109.702 1.42118 109.224 1.99784 108.909C2.55649 108.593 3.1782 108.44 3.85398 108.44C4.41263 108.44 4.91721 108.557 5.36773 108.782C5.80924 109.008 6.14262 109.251 6.36788 109.521V109.557L6.15163 109.765C6.0345 109.584 5.88132 109.431 5.73716 109.314C5.22356 108.918 4.65591 108.719 4.01617 108.719C3.23227 108.719 2.61055 109.044 2.15102 109.675C1.69149 110.305 1.46623 111.206 1.46623 112.387C1.46623 113.504 1.70951 114.36 2.21409 114.964C2.71867 115.558 3.34039 115.856 4.08825 115.856C4.48471 115.856 4.89018 115.757 5.31367 115.567C5.65606 115.405 5.93538 115.162 6.16064 114.819L6.37689 115.036Z" fill="#0E81AE"/>
<path d="M10.4316 112.765C10.792 112.369 11.2605 112.17 11.8011 112.17C12.3508 112.17 12.8103 112.36 13.1707 112.765C13.5492 113.171 13.7294 113.657 13.7294 114.243C13.7294 114.901 13.5492 115.405 13.1707 115.775C12.7833 116.153 12.3328 116.333 11.8011 116.333C11.2605 116.333 10.81 116.144 10.4316 115.766C10.0531 115.387 9.87292 114.883 9.87292 114.243C9.87292 113.648 10.0531 113.162 10.4316 112.765ZM10.9271 115.702C11.1344 115.982 11.4317 116.117 11.8102 116.117C12.1976 116.117 12.4949 115.982 12.7022 115.702C12.9094 115.432 13.0536 114.955 13.0536 114.261C13.0536 113.585 12.9004 113.098 12.7022 112.81C12.4949 112.522 12.1976 112.378 11.8102 112.378C11.4227 112.378 11.1254 112.513 10.9181 112.81C10.7109 113.098 10.5667 113.585 10.5667 114.261C10.5577 114.955 10.7109 115.432 10.9271 115.702Z" fill="#0E81AE"/>
<path d="M21.2711 114.81V116.162H20.5683V114.81V113.72C20.5683 113.378 20.5593 113.126 20.5232 112.972C20.5052 112.819 20.4151 112.684 20.28 112.576C20.1448 112.459 19.9646 112.405 19.7664 112.405C19.5771 112.405 19.3699 112.468 19.1537 112.594C18.9464 112.72 18.7392 112.918 18.5229 113.171V114.81V116.162H17.8381V114.81V113.63V112.062H18.5229V112.891C18.7392 112.612 18.9734 112.405 19.2167 112.27C19.46 112.134 19.7303 112.062 20.0187 112.062C20.343 112.062 20.6133 112.134 20.8026 112.288C21.0098 112.423 21.199 112.639 21.2351 112.945C21.2351 112.945 21.2711 113.017 21.2711 113.261V114.81Z" fill="#0E81AE"/>
<path d="M25.4158 115.757C25.4158 115.766 25.4068 115.766 25.3978 115.775V115.766L25.4158 115.757ZM27.6775 115.432C27.6144 115.766 27.4522 116.009 27.1909 116.171C26.9296 116.333 26.6413 116.387 26.3079 116.324C25.9655 116.252 25.6862 116.045 25.4699 115.712L25.6411 115.603C25.7943 115.883 26.0286 116.054 26.3349 116.117C26.5692 116.162 26.7494 116.126 26.8936 116.009C27.0467 115.892 27.1278 115.739 27.1639 115.576C27.2089 115.369 27.1729 115.198 27.0738 115.054C26.9746 114.901 26.7494 114.702 26.434 114.45C26.0916 114.189 25.8574 113.945 25.7222 113.729C25.5961 113.522 25.551 113.288 25.6051 113.017C25.6501 112.774 25.7853 112.558 26.0105 112.36C26.2268 112.17 26.5061 112.098 26.8305 112.17C27.1458 112.234 27.3801 112.405 27.5423 112.684L27.3711 112.801C27.2359 112.567 27.0467 112.423 26.8034 112.387C26.6232 112.342 26.4611 112.378 26.3349 112.459C26.1998 112.558 26.1096 112.675 26.0736 112.819C26.0376 112.99 26.0826 113.144 26.1817 113.288C26.2899 113.423 26.4971 113.621 26.8034 113.846C27.272 114.18 27.5513 114.477 27.6324 114.729C27.6955 114.991 27.7225 115.234 27.6775 115.432Z" fill="#0E81AE"/>
<path d="M34.4713 115.432C34.2821 115.73 34.0658 115.955 33.8135 116.108C33.5702 116.261 33.2999 116.333 32.9936 116.333C32.7323 116.333 32.507 116.27 32.3088 116.153C32.1196 116.036 31.9754 115.892 31.9033 115.721C31.8312 115.558 31.7952 115.306 31.7952 114.955V113.63V112.306H32.471V114.982C32.471 115.252 32.489 115.441 32.516 115.558C32.5521 115.675 32.6332 115.784 32.7593 115.874C32.8855 115.964 33.0386 116 33.2098 116C33.4441 116 33.6694 115.928 33.8946 115.766C34.1109 115.612 34.255 115.441 34.3451 115.261C34.4172 115.09 34.4623 114.829 34.4623 114.513V113.63V112.306H35.1381V114.838V116.198H34.4623V115.432H34.4713Z" fill="#0E81AE"/>
<path d="M40.1659 116.162H39.4721V114.81V110.918V109.548H40.0398C40.0398 109.557 40.0488 109.557 40.0578 109.548H40.1659V114.82V116.162Z" fill="#0E81AE"/>
<path d="M47.5003 115.684C47.3922 115.838 47.257 115.964 47.0858 116.072C46.7975 116.243 46.4641 116.342 46.1217 116.342C45.7884 116.342 45.491 116.252 45.1847 116.099C44.8963 115.928 44.6621 115.703 44.4728 115.405C44.2926 115.108 44.1935 114.738 44.1935 114.315C44.1935 113.702 44.3737 113.198 44.7341 112.792C45.0855 112.396 45.5361 112.188 46.0767 112.188C46.5813 112.188 46.9777 112.342 47.248 112.648C47.5274 112.945 47.6355 113.27 47.6355 113.648H45.0044C44.9954 113.828 44.9864 113.973 44.9864 114.054C44.9864 114.729 45.0946 115.243 45.3108 115.585C45.518 115.919 45.8334 116.09 46.2569 116.09C46.7435 116.09 47.1039 115.91 47.3472 115.531L47.5003 115.684ZM45.0044 113.441H47.0588C47.0588 113.225 46.8786 112.378 46.0406 112.378C45.455 112.378 45.1216 112.729 45.0044 113.441Z" fill="#0E81AE"/>
<path d="M54.997 114.81V116.162H54.3032V114.81V113.72C54.3032 113.378 54.2941 113.126 54.2581 112.972C54.2401 112.819 54.15 112.684 54.0148 112.576C53.8797 112.459 53.6995 112.405 53.5012 112.405C53.312 112.405 53.1048 112.468 52.8885 112.594C52.6813 112.72 52.474 112.918 52.2578 113.171V114.81V116.162H51.564V114.81V113.63V112.062H52.2488V112.891C52.465 112.612 52.6993 112.405 52.9426 112.27C53.1859 112.134 53.4562 112.062 53.7445 112.062C54.0689 112.062 54.3392 112.134 54.5284 112.288C54.7357 112.423 54.9249 112.639 54.9609 112.945C54.9609 112.945 54.997 113.017 54.997 113.261V114.81Z" fill="#0E81AE"/>
<path d="M58.9886 116.162V116.009L61.6106 112.432H59.1508V112.216H62.4666V112.387L59.8716 115.928H62.4486V116.153H58.9886V116.162Z" fill="#0E81AE"/>
<path d="M69.5037 113.495V115.063V116.279C69.5037 116.279 69.4947 116.279 68.8279 116.279V116.117V115.603C68.5035 115.829 68.2152 116 67.9629 116.108C67.7016 116.225 67.4674 116.279 67.2691 116.279C66.7826 116.279 66.3861 115.703 66.3861 115.369C66.3861 115.036 66.4582 114.847 66.7736 114.594C67.0979 114.351 67.5394 114.108 68.0981 113.882L68.8369 113.585V113.396C68.8369 113.126 68.8189 112.936 68.7829 112.819C68.7378 112.702 68.6567 112.594 68.5036 112.495C68.3684 112.396 68.1702 112.36 67.9359 112.36C67.5575 112.36 67.3232 112.432 67.1159 112.576C67.0439 112.504 67.0439 112.504 66.9538 112.423C67.2151 112.261 67.5575 112.143 68.026 112.143C68.4315 112.143 68.7468 112.207 68.9631 112.333C69.1883 112.459 69.3415 112.603 69.4046 112.765C69.4767 112.909 69.5037 113.162 69.5037 113.495ZM68.8279 113.801L68.3053 114.009C67.4854 114.342 67.0799 114.756 67.0799 115.261C67.0799 115.468 67.134 115.621 67.2421 115.748C67.3502 115.865 67.4764 115.928 67.6476 115.928C67.8007 115.928 67.9719 115.874 68.1612 115.775C68.3504 115.676 68.5756 115.531 68.8279 115.333V113.801Z" fill="#0E81AE"/>
<path d="M77.6492 116.162H76.9554V114.81V110.918V109.548H77.523C77.523 109.557 77.532 109.557 77.541 109.548H77.6492V114.82V116.162Z" fill="#0E81AE"/>
<path d="M84.47 113.495V115.063V116.279C84.47 116.279 84.4609 116.279 83.7942 116.279V116.117V115.603C83.4698 115.829 83.1815 116 82.9292 116.108C82.6679 116.225 82.4336 116.279 82.2354 116.279C81.7488 116.279 81.3524 115.703 81.3524 115.369C81.3524 115.036 81.4244 114.847 81.7398 114.594C82.0642 114.351 82.5057 114.108 83.0643 113.882L83.8032 113.585V113.396C83.8032 113.126 83.7852 112.936 83.7491 112.819C83.7041 112.702 83.623 112.594 83.4698 112.495C83.3346 112.396 83.1364 112.36 82.9021 112.36C82.5237 112.36 82.2894 112.432 82.0822 112.576C82.0101 112.504 82.0101 112.504 81.92 112.423C82.1813 112.261 82.5237 112.143 82.9922 112.143C83.3977 112.143 83.7131 112.206 83.9293 112.333C84.1546 112.459 84.3078 112.603 84.3708 112.765C84.4339 112.909 84.47 113.162 84.47 113.495ZM83.7942 113.801L83.2716 114.009C82.4516 114.342 82.0462 114.756 82.0462 115.261C82.0462 115.468 82.1002 115.621 82.2083 115.748C82.3165 115.865 82.4426 115.928 82.6138 115.928C82.767 115.928 82.9382 115.874 83.1274 115.775C83.3166 115.675 83.5419 115.531 83.7942 115.333V113.801Z" fill="#0E81AE"/>
<path d="M92.0207 112.324L90.2456 116.333H89.9753L88.1642 112.324H88.9031L90.3718 115.603L91.7954 112.324H92.0207Z" fill="#0E81AE"/>
<path d="M95.787 112.765C96.1475 112.369 96.616 112.17 97.1566 112.17C97.7063 112.17 98.1658 112.36 98.5262 112.765C98.9046 113.171 99.0848 113.657 99.0848 114.243C99.0848 114.901 98.9046 115.405 98.5262 115.775C98.1387 116.153 97.6882 116.333 97.1566 116.333C96.616 116.333 96.1655 116.144 95.787 115.766C95.4086 115.387 95.2284 114.883 95.2284 114.243C95.2284 113.648 95.4176 113.162 95.787 112.765ZM96.2826 115.702C96.4899 115.982 96.7872 116.117 97.1656 116.117C97.5531 116.117 97.8504 115.982 98.0577 115.702C98.2649 115.432 98.4091 114.955 98.4091 114.261C98.4091 113.585 98.2559 113.098 98.0577 112.81C97.8504 112.522 97.5531 112.378 97.1656 112.378C96.7782 112.378 96.4808 112.513 96.2736 112.81C96.0664 113.098 95.9222 113.585 95.9222 114.261C95.9222 114.955 96.0664 115.432 96.2826 115.702Z" fill="#0E81AE"/>
<path d="M103.896 112.684C103.689 112.864 103.572 113.071 103.518 113.279C103.464 113.486 103.446 113.765 103.446 114.117V114.81V116.162H102.752V114.81V113.693V112.062H103.392V113.08C103.626 112.279 104.446 111.936 105.023 112.242L104.888 112.522C104.518 112.288 104.221 112.387 103.896 112.684Z" fill="#0E81AE"/>
<path d="M108.51 112.765C108.87 112.369 109.339 112.17 109.879 112.17C110.429 112.17 110.888 112.36 111.249 112.765C111.627 113.171 111.808 113.657 111.808 114.243C111.808 114.901 111.627 115.405 111.249 115.775C110.861 116.153 110.411 116.333 109.879 116.333C109.339 116.333 108.888 116.144 108.51 115.766C108.131 115.387 107.951 114.883 107.951 114.243C107.951 113.648 108.131 113.162 108.51 112.765ZM108.996 115.702C109.204 115.982 109.501 116.117 109.879 116.117C110.267 116.117 110.564 115.982 110.771 115.702C110.979 115.432 111.123 114.955 111.123 114.261C111.123 113.585 110.97 113.098 110.771 112.81C110.564 112.522 110.267 112.378 109.879 112.378C109.492 112.378 109.195 112.513 108.987 112.81C108.78 113.098 108.636 113.585 108.636 114.261C108.636 114.955 108.789 115.432 108.996 115.702Z" fill="#0E81AE"/>
<path fill-rule="evenodd" clip-rule="evenodd" d="M161.455 47.1964C161.455 47.1964 162.185 46.4756 163.653 43.1688C166.447 36.9246 165.293 29.3739 160.689 23.9857C158.139 20.9942 154.616 19.111 150.417 18.0478C146.218 16.9756 141.344 16.7323 136.073 17.0116C145.524 17.8946 150.129 27.2835 150.156 36.7894C150.165 40.4026 148.219 47.2055 148.219 47.2055L161.455 47.1964Z" fill="#0E81AE"/>
<path fill-rule="evenodd" clip-rule="evenodd" d="M172.997 80.4718C172.907 74.0564 170.862 68.8034 167.438 64.8749C162.482 64.8478 157.526 64.9199 152.571 64.9019C155.436 68.9566 156.914 74.1826 157.049 79.4807C157.337 90.969 151.3 102.791 139.397 103.737C149.273 104.458 157.734 102.953 163.689 99.1144C169.654 95.2669 173.114 89.0948 172.997 80.4718Z" fill="#0E81AE"/>
<path d="M85.5423 64.8208V83.8417C85.5423 86.0042 85.4792 87.8874 85.3621 89.4912C85.2359 91.0951 85.0557 92.4286 84.8124 93.4738C84.5691 94.5281 84.2177 95.4832 83.7672 96.3482C83.3167 97.2132 82.7671 97.988 82.1093 98.6638C81.5146 99.2585 80.8839 99.7721 80.2081 100.214C79.5323 100.655 78.8205 101.016 78.0727 101.304C77.3158 101.592 76.4508 101.817 75.4596 101.998C74.4685 102.169 73.3602 102.295 72.1258 102.358V103.088V103.818H92.4532H112.781V103.088V102.358C110.663 102.25 108.78 101.89 107.131 101.277C105.491 100.664 104.086 99.7901 102.914 98.6728C102.257 98.0331 101.698 97.2943 101.247 96.4473C100.788 95.6003 100.436 94.6452 100.184 93.582C99.9319 92.5187 99.7427 91.1852 99.6165 89.5633C99.4904 87.9415 99.4273 86.0403 99.4273 83.8507V64.8118C94.7869 64.8118 90.1646 64.8208 85.5423 64.8208Z" fill="#0E81AE"/>
<path d="M16.2794 83.8417C16.2794 86.0042 16.2163 87.8874 16.0992 89.4912C15.973 91.0951 15.7928 92.4286 15.5495 93.4738C15.3062 94.528 14.9548 95.4831 14.5043 96.3481C14.0538 97.2131 13.5042 97.988 12.8464 98.6638C12.2517 99.2765 11.621 99.8081 10.9452 100.259C10.2694 100.7 9.55762 101.061 8.80975 101.34C8.05288 101.619 7.18788 101.835 6.20575 102.007C5.22361 102.178 4.13336 102.295 2.92596 102.358V103.088V103.818H17.5859H32.2458V103.088V102.358C31.0384 102.295 29.9391 102.178 28.966 102.007C27.9839 101.835 27.1189 101.619 26.371 101.34C25.6141 101.061 24.9023 100.7 24.2355 100.259C23.5598 99.8171 22.929 99.2855 22.3344 98.6638C21.6766 97.988 21.127 97.2131 20.6764 96.3571C20.2259 95.5012 19.8745 94.5461 19.6312 93.5099C19.388 92.4737 19.2077 91.1491 19.0816 89.5363C18.9555 87.9234 18.9014 86.0312 18.9014 83.8417V64.8748C18.0364 64.8748 17.1624 64.8748 16.2974 64.8748V83.8417H16.2794Z" fill="#0E81AE"/>
<path d="M99.5173 32.7528C99.5894 31.4463 99.7066 30.2479 99.8507 29.1396C99.9318 28.3106 100.058 27.5538 100.22 26.878C100.382 26.1932 100.572 25.5805 100.806 25.0399C101.04 24.4992 101.328 23.9857 101.68 23.4901C102.031 22.9945 102.437 22.526 102.905 22.0845C103.518 21.4718 104.167 20.9401 104.833 20.4986C105.509 20.0571 106.212 19.7057 106.942 19.4444C107.672 19.1831 108.528 18.9669 109.492 18.8047C110.465 18.6425 111.555 18.5254 112.763 18.4623V17.7324V17.0026H99.6885H86.6235L73.9458 47.1874C74.937 47.1874 75.9371 47.1874 76.9283 47.1874L85.5422 26.9771V47.1784C90.1645 47.1784 94.7869 47.1784 99.4092 47.1694V36.9696C99.4092 35.4559 99.4452 34.0503 99.5173 32.7528Z" fill="#0E81AE"/>
<path d="M30.5247 16.9928H16.7208H2.91687V17.7226V18.4525C4.43963 18.5336 5.81822 18.7228 7.04363 19.0021C8.26904 19.2814 9.34128 19.6599 10.2603 20.1374C11.1794 20.615 12.0084 21.2187 12.7292 21.9575C13.459 22.6964 14.0807 23.5614 14.6124 24.5615C14.9908 25.2824 15.3062 26.2194 15.5494 27.3638C15.7927 28.5081 15.9639 29.8687 16.072 31.4365C16.1351 32.3105 16.1802 33.2025 16.2162 34.1216C16.2523 35.0406 16.2613 35.9957 16.2613 36.9688V47.2137C17.1263 47.2137 18.0003 47.2137 18.8653 47.2137V28.1206L27.0918 47.2137C32.3178 47.2137 37.5348 47.2137 42.7608 47.2047L30.5247 16.9928Z" fill="#0E81AE"/>
<path d="M58.0695 84.986L49.9151 64.8478C44.8423 64.8568 39.7694 64.8568 34.6966 64.8568L35.1741 65.9651L51.4559 103.809H52.1227H52.7894L69.1703 65.3884L69.4136 64.8208C68.4585 64.8208 67.4944 64.8208 66.5393 64.8208L58.0695 84.986Z" fill="#0E81AE"/>
<path d="M124.918 0H124.629V47.656H124.918V0Z" fill="#0E81AE"/>
<path d="M125.062 64.8659H124.773V117H125.062V64.8659Z" fill="#0E81AE"/>
</svg>
