<svg width="153" height="44" viewBox="0 0 153 44" fill="none" xmlns="http://www.w3.org/2000/svg">
<g clip-path="url(#clip0_114_5)">
<path d="M44.1228 18.1088C44.1228 14.9536 43.023 11.8849 40.8675 8.94578C36.9963 3.75914 32.3332 2.50571 29.0339 2.41926C26.3065 0.603937 21.8194 -1.08172 15.5727 0.906491C9.37004 2.8947 6.73059 6.8279 5.63082 9.89667C3.03537 11.8849 0 15.5587 0 21.9988C0 28.4389 3.03537 32.1128 5.63082 34.101C6.73059 37.1265 9.37004 41.1029 15.6167 43.0912C17.5963 43.7395 19.4439 43.9988 21.0716 43.9988C24.5469 43.9988 27.2303 42.8318 29.0779 41.5784C32.3772 41.4919 36.9963 40.2385 40.8675 35.0086C43.023 32.0695 44.1228 29.0008 44.1228 25.8456C44.1228 24.5489 43.9468 23.2523 43.5509 21.9556C43.9028 20.7022 44.1228 19.4055 44.1228 18.1088ZM16.1006 41.5784C11.8335 40.1953 9.45802 37.8613 8.1383 35.657C11.3496 37.1697 15.0888 37.4291 17.8603 36.2621C19.3999 38.8122 22.5673 40.7572 26.0865 41.3623C23.711 42.3996 20.3677 42.9183 16.1006 41.5784ZM18.6081 34.0145C18.3002 33.2365 18.1682 32.545 18.1682 31.8967C18.1682 30.989 18.4761 30.4703 18.7401 30.211C19.18 29.7788 19.6199 29.6491 19.8838 29.6491C19.9278 29.6491 19.9718 29.6491 20.0158 29.6491L20.1038 29.6923C20.2358 29.7356 20.7197 30.0813 20.8076 30.8593C20.8076 30.9026 20.8076 30.989 20.8076 31.0754C20.7637 32.1128 20.0158 33.1069 18.6081 34.0145ZM27.4503 39.936C23.975 39.6334 20.8076 37.8613 19.312 35.4841C21.8634 33.8849 22.3913 32.2424 22.3913 31.0754C22.3913 30.9458 22.3913 30.7729 22.3473 30.6432C22.2154 29.4762 21.4235 28.3957 20.4997 28.1363C19.6199 27.8338 18.3442 28.2228 17.5083 29.0872C17.0244 29.5627 16.4965 30.4703 16.4965 31.8967C16.4965 32.7611 16.7165 33.712 17.1124 34.7493C14.517 35.8731 10.9097 35.4409 7.91834 33.712C7.61041 33.5391 7.30247 33.3662 6.99454 33.1069C6.86256 32.7611 6.77458 32.4153 6.6866 32.0695C6.46665 31.2051 6.37867 30.2974 6.37867 29.3898C6.37867 26.9261 7.1705 24.6354 8.44623 23.0794C11.1297 25.2837 13.0653 24.8947 14.0331 24.4625C15.0888 23.987 15.8807 22.9497 15.8807 21.9988V21.9556V21.9124C15.8807 20.9615 15.0888 19.9674 14.0331 19.4487C13.0653 19.0165 11.1297 18.6275 8.44623 20.8318C7.12651 19.3191 6.37867 16.9851 6.37867 14.5214C6.37867 13.6138 6.46665 12.7061 6.6866 11.8417C6.77458 11.4959 6.86256 11.1501 6.99454 10.8043C7.30247 10.5882 7.61041 10.3721 7.91834 10.1992C10.9097 8.47034 14.517 8.03812 17.1564 9.07545C16.7165 10.1128 16.5405 11.0637 16.5405 11.9281C16.5405 13.3544 17.1124 14.2189 17.5523 14.7375C18.3882 15.602 19.6639 15.991 20.5437 15.6884C21.4675 15.4291 22.2593 14.3918 22.3913 13.1815C22.3913 13.0519 22.4353 12.9222 22.4353 12.7493C22.4353 11.6255 21.8634 9.93989 19.356 8.3839C20.8516 6.00669 24.019 4.27781 27.4942 3.93203C27.8462 3.88881 28.1981 3.88881 28.594 3.88881C28.902 4.10492 29.2099 4.32103 29.4298 4.58036C31.8493 6.69824 33.389 9.68056 33.389 12.3603C33.389 12.5332 33.389 12.7061 33.389 12.879C29.9137 12.6629 28.55 14.0892 28.0221 14.9969C27.4503 16.0342 27.4503 17.3309 28.0221 18.0656C28.55 18.8436 29.8258 19.2326 31.0135 19.0165C32.0253 18.8004 33.8289 17.9792 34.7087 14.6511C37.4362 15.2994 40.1196 17.7198 41.5273 20.8751C41.6593 21.1776 41.7913 21.5234 41.9232 21.8692C41.7913 22.2149 41.6593 22.5607 41.5273 22.8633C40.1636 26.0185 37.4802 28.4389 34.7087 29.0872C33.8289 25.7591 32.0253 24.9379 31.0135 24.7218C29.8258 24.5057 28.55 24.8947 28.0221 25.6727C27.4503 26.4075 27.4503 27.7041 28.0221 28.7415C28.55 29.6491 29.9137 31.0754 33.389 30.8593C33.389 31.0322 33.389 31.2051 33.389 31.378C33.389 34.0578 31.8933 37.0401 29.4298 39.158C29.1659 39.3741 28.902 39.5902 28.594 39.8495C28.1541 39.9792 27.8022 39.9792 27.4503 39.936ZM4.92697 31.2483C3.21133 29.3466 1.62766 26.4075 1.62766 21.9988C1.62766 17.5902 3.16734 14.6511 4.92697 12.7493C4.83899 13.3544 4.795 14.0028 4.795 14.6079C4.795 17.547 5.7188 20.1835 7.34646 22.042C5.7188 23.8141 4.795 26.4939 4.795 29.3898C4.795 30.0381 4.83899 30.6432 4.92697 31.2483ZM9.67798 21.9988C11.5696 20.4861 12.8013 20.7022 13.3732 20.9615C14.0771 21.2641 14.253 21.8259 14.253 21.9556V22.042C14.253 22.1717 14.0331 22.7336 13.3732 23.0362C12.8453 23.2955 11.6136 23.4684 9.67798 21.9988ZM18.1682 12.0578C18.1682 11.4527 18.3002 10.7611 18.6081 9.98311C20.4997 11.1933 20.7637 12.3171 20.7637 12.9222C20.7637 13.0086 20.7637 13.0951 20.7637 13.1383C20.6757 13.8299 20.1918 14.2189 20.0598 14.2621H19.9718C19.8399 14.3053 19.224 14.2621 18.7401 13.7434C18.4761 13.4841 18.1682 12.9222 18.1682 12.0578ZM17.8603 7.73557C15.0888 6.56857 11.3936 6.8279 8.1383 8.34067C9.45802 6.13635 11.8335 3.75914 16.1006 2.41926C20.3677 1.03616 23.711 1.59804 26.0865 2.63537C22.5673 3.24048 19.4439 5.18547 17.8603 7.73557ZM32.9931 29.433C30.5736 29.5195 29.6938 28.6982 29.3859 28.1363C29.0339 27.488 29.1659 26.9261 29.2539 26.7965L29.2979 26.71C29.3419 26.6236 29.6938 26.3642 30.2657 26.3642C30.3976 26.3642 30.4856 26.3642 30.6176 26.4075C31.2335 26.5804 32.3332 27.1422 32.9931 29.433ZM32.9931 14.5646C32.3332 16.8554 31.2335 17.4173 30.6176 17.547C29.8698 17.6766 29.3859 17.3741 29.2979 17.2444L29.2539 17.158C29.1659 17.0715 29.0339 16.4664 29.3859 15.8181C29.6938 15.2994 30.5736 14.435 32.9931 14.5646ZM42.4071 19.2758C40.6915 16.1639 37.8321 13.8299 34.9287 13.1815C34.9727 12.9222 34.9727 12.7061 34.9727 12.4468C34.9727 9.63733 33.609 6.61179 31.3214 4.27781C33.8729 4.83969 36.8643 6.30924 39.5037 9.89667C41.4833 12.5332 42.4511 15.2994 42.4511 18.1088C42.4511 18.4978 42.4511 18.8868 42.4071 19.2758ZM31.3214 39.6766C33.565 37.3426 34.9727 34.3171 34.9727 31.5077C34.9727 31.2483 34.9727 31.0322 34.9287 30.7729C37.8761 30.0813 40.7355 27.7474 42.4071 24.6786C42.4511 25.0676 42.4511 25.4566 42.4511 25.8456C42.4511 28.655 41.4393 31.4212 39.5037 34.0578C36.8643 37.6452 33.8729 39.158 31.3214 39.6766Z" fill="#D71920"/>
<path d="M58.6837 13.053C58.4198 13.1827 57.8479 13.3123 57.144 13.3123C55.2524 13.3123 54.1087 12.1453 54.1087 10.3732C54.1087 8.47147 55.4724 7.30447 57.276 7.30447C57.9799 7.30447 58.5078 7.43414 58.7277 7.56381L58.5078 8.42825C58.2438 8.29858 57.8479 8.21214 57.364 8.21214C56.1762 8.21214 55.2964 8.94691 55.2964 10.3732C55.2964 11.6699 56.0443 12.4911 57.364 12.4911C57.8039 12.4911 58.2438 12.4047 58.5518 12.275L58.6837 13.053Z" fill="black"/>
<path d="M63.5227 11.0648C63.5227 12.6208 62.4229 13.3124 61.3232 13.3124C60.0914 13.3124 59.1676 12.4911 59.1676 11.1513C59.1676 9.76816 60.0914 8.90372 61.3672 8.90372C62.6429 8.90372 63.5227 9.81138 63.5227 11.0648ZM60.2674 11.108C60.2674 11.9293 60.6633 12.5344 61.3232 12.5344C61.939 12.5344 62.379 11.9293 62.379 11.108C62.379 10.4597 62.071 9.68171 61.3232 9.68171C60.5753 9.68171 60.2674 10.4165 60.2674 11.108Z" fill="black"/>
<path d="M64.4025 10.2436C64.4025 9.76816 64.4025 9.33594 64.3585 8.99016H65.3263L65.3703 9.63849H65.4143C65.5903 9.29271 66.0742 8.90372 66.778 8.90372C67.5259 8.90372 68.3177 9.37916 68.3177 10.719V13.2259H67.2179V10.8487C67.2179 10.2436 66.998 9.76816 66.3821 9.76816C65.9422 9.76816 65.6343 10.0707 65.5463 10.3733C65.5023 10.4597 65.5023 10.5894 65.5023 10.719V13.1827H64.4025V10.2436Z" fill="black"/>
<path d="M69.3735 12.2318C69.6374 12.3615 70.0773 12.5344 70.4732 12.5344C70.9571 12.5344 71.1771 12.3615 71.1771 12.0589C71.1771 11.7564 71.0011 11.6267 70.4732 11.4538C69.6374 11.1513 69.2855 10.719 69.2855 10.2436C69.2855 9.50883 69.9014 8.90372 70.9132 8.90372C71.3971 8.90372 71.793 9.03338 72.0569 9.16305L71.837 9.89782C71.661 9.81138 71.3091 9.63849 70.9132 9.63849C70.5172 9.63849 70.2973 9.81138 70.2973 10.0707C70.2973 10.33 70.5172 10.4597 71.0451 10.6758C71.837 10.9352 72.1889 11.3241 72.1889 11.9725C72.1889 12.7505 71.573 13.3124 70.4293 13.3124C69.9014 13.3124 69.4615 13.1827 69.1095 13.0098L69.3735 12.2318Z" fill="black"/>
<path d="M74.2565 7.82315C74.2565 8.1257 74.0365 8.38503 73.6406 8.38503C73.2886 8.38503 73.0247 8.1257 73.0247 7.82315C73.0247 7.47737 73.2886 7.26126 73.6406 7.26126C73.9925 7.26126 74.2565 7.52059 74.2565 7.82315ZM73.1127 13.2259V9.03336H74.2125V13.2259H73.1127Z" fill="black"/>
<path d="M79.2274 12.6208C79.2274 13.4853 79.0514 14.1336 78.6115 14.5226C78.1716 14.9116 77.5557 15.0412 76.9399 15.0412C76.412 15.0412 75.7961 14.9116 75.4442 14.6955L75.6641 13.8742C75.9281 14.0471 76.412 14.1768 76.8959 14.1768C77.5997 14.1768 78.1276 13.831 78.1276 12.9234V12.5776C77.8637 12.9666 77.4238 13.1827 76.8959 13.1827C75.8401 13.1827 75.0923 12.3183 75.0923 11.108C75.0923 9.72494 76.0161 8.90372 77.0279 8.90372C77.6877 8.90372 78.0836 9.20627 78.2596 9.55205L78.3036 8.99016H79.2274C79.2274 9.29271 79.1834 9.63849 79.1834 10.2004V12.6208H79.2274ZM78.1276 10.6758C78.1276 10.5894 78.1276 10.4597 78.0836 10.3733C77.9517 9.98427 77.6437 9.68171 77.2038 9.68171C76.5879 9.68171 76.148 10.2004 76.148 11.0648C76.148 11.7996 76.5 12.3615 77.2038 12.3615C77.5997 12.3615 77.9517 12.1021 78.0836 11.7131C78.1276 11.5835 78.1276 11.4538 78.1276 11.3241V10.6758Z" fill="black"/>
<path d="M80.3712 7.08838H81.4709V13.2259H80.3712V7.08838Z" fill="black"/>
<path d="M83.8025 7.82315C83.8025 8.1257 83.5825 8.38503 83.1866 8.38503C82.8347 8.38503 82.5707 8.1257 82.5707 7.82315C82.5707 7.47737 82.8347 7.26126 83.1866 7.26126C83.5825 7.26126 83.8025 7.52059 83.8025 7.82315ZM82.6587 13.2259V9.03336H83.7585V13.2259H82.6587Z" fill="black"/>
<path d="M88.9934 11.0648C88.9934 12.6208 87.8936 13.3124 86.7938 13.3124C85.5621 13.3124 84.6383 12.4911 84.6383 11.1513C84.6383 9.76816 85.5621 8.90372 86.8378 8.90372C88.1135 8.90372 88.9934 9.81138 88.9934 11.0648ZM85.738 11.108C85.738 11.9293 86.134 12.5344 86.7938 12.5344C87.4097 12.5344 87.8496 11.9293 87.8496 11.108C87.8496 10.4597 87.5417 9.68171 86.7938 9.68171C86.046 9.68171 85.738 10.4165 85.738 11.108Z" fill="black"/>
<path d="M91.7208 13.2259V7.39093H92.9526L94.4922 9.89781C94.8881 10.5461 95.2401 11.2377 95.504 11.8428C95.416 11.0648 95.416 10.33 95.416 9.42236V7.39093H96.4278V13.2259H95.328L93.7884 10.6758C93.3925 10.0275 92.9965 9.33592 92.7326 8.68759H92.6886C92.7326 9.42236 92.7326 10.2004 92.7326 11.1512V13.2259H91.7208Z" fill="black"/>
<path d="M100.959 12.1886C100.959 12.5776 100.959 12.9233 101.003 13.1827H100.035L99.9471 12.7072H99.9031C99.6392 13.053 99.1993 13.2691 98.6274 13.2691C97.7476 13.2691 97.2637 12.664 97.2637 12.0157C97.2637 10.9351 98.2315 10.4165 99.8151 10.4165V10.33C99.8151 10.0707 99.6831 9.59526 98.9353 9.59526C98.4954 9.59526 98.0555 9.72492 97.7916 9.89781L97.5716 9.20626C97.8795 9.03337 98.4514 8.81726 99.1113 8.81726C100.475 8.81726 100.871 9.6817 100.871 10.5894V12.1886H100.959ZM99.9031 11.1512C99.1553 11.1512 98.4074 11.2809 98.4074 11.9292C98.4074 12.3615 98.6714 12.5344 99.0233 12.5344C99.4632 12.5344 99.7711 12.275 99.8591 11.9725C99.9031 11.886 99.9031 11.7996 99.9031 11.7564V11.1512Z" fill="black"/>
<path d="M101.707 12.6208L103.334 10.5894C103.554 10.33 103.73 10.1139 103.95 9.89783H101.883V9.03339H105.27V9.68172L103.686 11.6699C103.466 11.9293 103.29 12.1454 103.07 12.4047H105.314V13.2691H101.707V12.6208Z" fill="black"/>
<path d="M107.206 7.82315C107.206 8.1257 106.986 8.38503 106.59 8.38503C106.238 8.38503 105.974 8.1257 105.974 7.82315C105.974 7.47737 106.238 7.26126 106.59 7.26126C106.986 7.26126 107.206 7.52059 107.206 7.82315ZM106.062 13.2259V9.03336H107.162V13.2259H106.062Z" fill="black"/>
<path d="M112.396 11.0648C112.396 12.6208 111.297 13.3124 110.197 13.3124C108.965 13.3124 108.041 12.4911 108.041 11.1513C108.041 9.76816 108.965 8.90372 110.241 8.90372C111.517 8.90372 112.396 9.81138 112.396 11.0648ZM109.141 11.108C109.141 11.9293 109.537 12.5344 110.197 12.5344C110.813 12.5344 111.253 11.9293 111.253 11.108C111.253 10.4597 110.945 9.68171 110.197 9.68171C109.449 9.68171 109.141 10.4165 109.141 11.108Z" fill="black"/>
<path d="M113.276 10.2436C113.276 9.76816 113.276 9.33594 113.232 8.99016H114.2L114.244 9.63849H114.288C114.464 9.29271 114.948 8.90372 115.652 8.90372C116.4 8.90372 117.191 9.37916 117.191 10.719V13.2259H116.092V10.8487C116.092 10.2436 115.872 9.76816 115.256 9.76816C114.816 9.76816 114.508 10.0707 114.42 10.3733C114.376 10.4597 114.376 10.5894 114.376 10.719V13.1827H113.276V10.2436Z" fill="black"/>
<path d="M121.635 12.1886C121.635 12.5776 121.635 12.9233 121.679 13.1827H120.711L120.623 12.7072H120.579C120.315 13.053 119.875 13.2691 119.303 13.2691C118.423 13.2691 117.939 12.664 117.939 12.0157C117.939 10.9351 118.907 10.4165 120.491 10.4165V10.33C120.491 10.0707 120.359 9.59526 119.611 9.59526C119.171 9.59526 118.731 9.72492 118.467 9.89781L118.247 9.20626C118.555 9.03337 119.127 8.81726 119.787 8.81726C121.151 8.81726 121.547 9.6817 121.547 10.5894V12.1886H121.635ZM120.579 11.1512C119.831 11.1512 119.083 11.2809 119.083 11.9292C119.083 12.3615 119.347 12.5344 119.699 12.5344C120.139 12.5344 120.447 12.275 120.535 11.9725C120.579 11.886 120.579 11.7996 120.579 11.7564V11.1512Z" fill="black"/>
<path d="M122.778 7.08838H123.878V13.2259H122.778V7.08838Z" fill="black"/>
<path d="M125.814 11.4106C125.858 12.1885 126.43 12.4911 127.133 12.4911C127.617 12.4911 128.013 12.4047 128.321 12.3182L128.497 13.053C128.145 13.1827 127.617 13.3123 127.001 13.3123C125.594 13.3123 124.802 12.4479 124.802 11.1944C124.802 10.0274 125.506 8.9469 126.913 8.9469C128.321 8.9469 128.761 10.0707 128.761 10.9783C128.761 11.1944 128.761 11.3241 128.717 11.4106H125.814ZM127.705 10.6758C127.705 10.2868 127.529 9.63845 126.825 9.63845C126.166 9.63845 125.858 10.2436 125.814 10.6758H127.705Z" fill="black"/>
<path d="M58.3318 17.4616V22.4322C58.3318 22.8644 58.3318 23.3398 58.3758 23.5992H57.408L57.364 22.9508C57.1 23.4263 56.5722 23.7288 55.9563 23.7288C54.9445 23.7288 54.1087 22.8644 54.1087 21.5677C54.1087 20.1414 54.9885 19.3202 56.0443 19.3202C56.6162 19.3202 57.0561 19.5795 57.232 19.8821V17.5049H58.3318V17.4616ZM57.276 21.1355C57.276 21.0491 57.276 20.9626 57.232 20.8762C57.144 20.444 56.7921 20.1414 56.3082 20.1414C55.6044 20.1414 55.2084 20.7465 55.2084 21.5245C55.2084 22.3025 55.6044 22.8644 56.2642 22.8644C56.7041 22.8644 57.1001 22.5618 57.188 22.1296C57.232 22.0432 57.232 21.9135 57.232 21.8271V21.1355H57.276Z" fill="black"/>
<path d="M60.2674 21.7839C60.3114 22.5619 60.8832 22.8644 61.5871 22.8644C62.071 22.8644 62.4669 22.778 62.7748 22.6915L62.9508 23.4263C62.5989 23.556 62.071 23.6856 61.4551 23.6856C60.0474 23.6856 59.2556 22.8212 59.2556 21.5678C59.2556 20.4008 59.9594 19.3202 61.3671 19.3202C62.7748 19.3202 63.2147 20.444 63.2147 21.3517C63.2147 21.5678 63.2147 21.6974 63.1708 21.7839H60.2674ZM62.159 21.0491C62.159 20.6601 61.983 20.0118 61.2792 20.0118C60.6193 20.0118 60.3114 20.6169 60.2674 21.0491H62.159Z" fill="black"/>
<path d="M65.1943 18.1964C65.1943 18.499 64.9744 18.7583 64.5785 18.7583C64.2266 18.7583 63.9626 18.499 63.9626 18.1964C63.9626 17.8506 64.2266 17.6345 64.5785 17.6345C64.9744 17.6345 65.1943 17.8939 65.1943 18.1964ZM64.0506 23.5992V19.4066H65.1504V23.5992H64.0506Z" fill="black"/>
<path d="M68.1857 17.8507C68.6696 17.7642 69.2855 17.721 69.9014 17.721C71.0011 17.721 71.793 17.9371 72.3209 18.4126C72.8927 18.888 73.2447 19.5796 73.2447 20.5737C73.2447 21.611 72.8927 22.389 72.3209 22.9076C71.749 23.4263 70.7812 23.6856 69.6374 23.6856C69.0215 23.6856 68.5376 23.6424 68.1857 23.5992V17.8507ZM69.2415 22.778C69.3735 22.8212 69.6374 22.8212 69.8574 22.8212C71.2651 22.8212 72.1009 22.0864 72.1009 20.5737C72.1009 19.277 71.3531 18.5422 69.9893 18.5422C69.6374 18.5422 69.4175 18.5854 69.2415 18.5854V22.778Z" fill="black"/>
<path d="M78.2156 21.4381C78.2156 22.9941 77.1159 23.6856 76.0161 23.6856C74.7843 23.6856 73.8605 22.8644 73.8605 21.5245C73.8605 20.1414 74.7843 19.277 76.0601 19.277C77.3358 19.277 78.2156 20.1846 78.2156 21.4381ZM74.9603 21.4813C74.9603 22.3025 75.3562 22.9076 76.0161 22.9076C76.632 22.9076 77.0719 22.3025 77.0719 21.4813C77.0719 20.833 76.7639 20.055 76.0161 20.055C75.2682 20.055 74.9603 20.7897 74.9603 21.4813Z" fill="black"/>
<path d="M80.3272 18.2829V19.3634H81.339V20.1414H80.3272V22.0432C80.3272 22.5618 80.4592 22.8212 80.8991 22.8212C81.119 22.8212 81.207 22.8212 81.339 22.778V23.5992C81.163 23.6424 80.8991 23.7288 80.5472 23.7288C80.1512 23.7288 79.7993 23.5992 79.6233 23.3831C79.4034 23.1237 79.2714 22.778 79.2714 22.2161V20.2279H78.6555V19.4499H79.2714V18.5854L80.3272 18.2829Z" fill="black"/>
<path d="M83.4065 18.2829V19.3634H84.4183V20.1414H83.4065V22.0432C83.4065 22.5618 83.5385 22.8212 83.9784 22.8212C84.1984 22.8212 84.2864 22.8212 84.4183 22.778V23.5992C84.2424 23.6424 83.9784 23.7288 83.6265 23.7288C83.2306 23.7288 82.8787 23.5992 82.7027 23.3831C82.4827 23.1237 82.3508 22.778 82.3508 22.2161V20.2279H81.7349V19.4499H82.3508V18.5854L83.4065 18.2829Z" fill="black"/>
<path d="M89.3013 21.4381C89.3013 22.9941 88.2015 23.6856 87.1018 23.6856C85.87 23.6856 84.9462 22.8644 84.9462 21.5245C84.9462 20.1414 85.87 19.277 87.1458 19.277C88.4215 19.277 89.3013 20.1846 89.3013 21.4381ZM86.046 21.4813C86.046 22.3025 86.4419 22.9076 87.1018 22.9076C87.7176 22.9076 88.1576 22.3025 88.1576 21.4813C88.1576 20.833 87.8496 20.055 87.1018 20.055C86.3539 20.055 86.046 20.7897 86.046 21.4813Z" fill="black"/>
<path d="M90.1811 20.7465C90.1811 20.1847 90.1811 19.7524 90.1371 19.4067H91.0609L91.1049 20.2279H91.1489C91.3689 19.6228 91.8528 19.3202 92.3367 19.3202C92.4247 19.3202 92.5126 19.3202 92.6006 19.3634V20.3143C92.5126 20.3143 92.4247 20.2711 92.2927 20.2711C91.7648 20.2711 91.4129 20.6169 91.3249 21.0923C91.3249 21.1788 91.2809 21.3084 91.2809 21.4381V23.5992H90.1811V20.7465Z" fill="black"/>
<path d="M94.4482 18.1964C94.4482 18.499 94.2283 18.7583 93.8324 18.7583C93.4804 18.7583 93.2165 18.499 93.2165 18.1964C93.2165 17.8506 93.4804 17.6345 93.8324 17.6345C94.2283 17.6345 94.4482 17.8939 94.4482 18.1964ZM93.3045 23.5992V19.4066H94.4043V23.5992H93.3045Z" fill="black"/>
<path d="M101.663 23.4263C101.399 23.556 100.827 23.6856 100.123 23.6856C98.2314 23.6856 97.0877 22.5186 97.0877 20.7465C97.0877 18.8448 98.4514 17.6778 100.255 17.6778C100.959 17.6778 101.487 17.8074 101.707 17.9371L101.487 18.8015C101.223 18.6719 100.827 18.5854 100.343 18.5854C99.1552 18.5854 98.2754 19.3202 98.2754 20.7465C98.2754 22.0432 99.0233 22.8644 100.343 22.8644C100.783 22.8644 101.223 22.778 101.531 22.6483L101.663 23.4263Z" fill="black"/>
<path d="M106.502 21.4381C106.502 22.9941 105.402 23.6856 104.302 23.6856C103.07 23.6856 102.147 22.8644 102.147 21.5245C102.147 20.1414 103.07 19.277 104.346 19.277C105.622 19.277 106.502 20.1846 106.502 21.4381ZM103.246 21.4813C103.246 22.3025 103.642 22.9076 104.302 22.9076C104.918 22.9076 105.358 22.3025 105.358 21.4813C105.358 20.833 105.05 20.055 104.302 20.055C103.554 20.055 103.246 20.7897 103.246 21.4813Z" fill="black"/>
<path d="M107.382 20.6169C107.382 20.1414 107.382 19.7092 107.338 19.3634H108.261L108.305 19.9685H108.349C108.569 19.6228 108.965 19.2338 109.669 19.2338C110.241 19.2338 110.681 19.5363 110.857 20.0118C110.989 19.7956 111.165 19.6228 111.385 19.4931C111.605 19.3202 111.913 19.2338 112.265 19.2338C112.968 19.2338 113.716 19.7092 113.716 21.0491V23.5127H112.66V21.1788C112.66 20.4872 112.396 20.055 111.913 20.055C111.561 20.055 111.253 20.3143 111.165 20.6169C111.121 20.7033 111.121 20.833 111.121 20.9626V23.4695H110.065V21.0491C110.065 20.444 109.845 20.055 109.317 20.055C108.921 20.055 108.657 20.3575 108.525 20.6601C108.481 20.7465 108.481 20.8762 108.481 21.0059V23.5127H107.426V20.6169H107.382Z" fill="black"/>
<path d="M114.86 20.6169C114.86 20.1414 114.86 19.7092 114.816 19.3634H115.74L115.784 19.9685H115.828C116.048 19.6228 116.444 19.2338 117.147 19.2338C117.719 19.2338 118.159 19.5363 118.335 20.0118C118.467 19.7956 118.643 19.6228 118.863 19.4931C119.083 19.3202 119.391 19.2338 119.743 19.2338C120.447 19.2338 121.195 19.7092 121.195 21.0491V23.5127H120.095V21.1788C120.095 20.4872 119.831 20.055 119.347 20.055C118.995 20.055 118.687 20.3143 118.599 20.6169C118.555 20.7033 118.555 20.833 118.555 20.9626V23.4695H117.455V21.0491C117.455 20.444 117.235 20.055 116.708 20.055C116.312 20.055 116.048 20.3575 115.916 20.6601C115.872 20.7465 115.872 20.8762 115.872 21.0059V23.5127H114.816V20.6169H114.86Z" fill="black"/>
<path d="M123.086 21.7839C123.13 22.5619 123.702 22.8644 124.406 22.8644C124.89 22.8644 125.286 22.778 125.594 22.6915L125.77 23.4263C125.418 23.556 124.89 23.6856 124.274 23.6856C122.866 23.6856 122.074 22.8212 122.074 21.5678C122.074 20.4008 122.778 19.3202 124.186 19.3202C125.594 19.3202 126.034 20.444 126.034 21.3517C126.034 21.5678 126.034 21.6974 125.99 21.7839H123.086ZM124.934 21.0491C124.934 20.6601 124.758 20.0118 124.054 20.0118C123.394 20.0118 123.086 20.6169 123.042 21.0491H124.934Z" fill="black"/>
<path d="M126.825 20.7465C126.825 20.1847 126.825 19.7524 126.781 19.4067H127.705L127.749 20.2279H127.793C128.013 19.6228 128.497 19.3202 128.981 19.3202C129.069 19.3202 129.157 19.3202 129.245 19.3634V20.3143C129.157 20.3143 129.069 20.2711 128.937 20.2711C128.409 20.2711 128.057 20.6169 127.969 21.0923C127.969 21.1788 127.925 21.3084 127.925 21.4381V23.5992H126.825V20.7465Z" fill="black"/>
<path d="M133.028 23.4695C132.808 23.556 132.368 23.6856 131.796 23.6856C130.477 23.6856 129.597 22.8212 129.597 21.5245C129.597 20.2711 130.477 19.277 131.972 19.277C132.368 19.277 132.764 19.3634 133.028 19.4931L132.852 20.2711C132.676 20.1846 132.412 20.0982 132.016 20.0982C131.181 20.0982 130.697 20.7033 130.697 21.4813C130.697 22.3457 131.269 22.8212 132.016 22.8212C132.412 22.8212 132.676 22.7347 132.852 22.6483L133.028 23.4695Z" fill="black"/>
<path d="M135.008 18.1964C135.008 18.499 134.788 18.7583 134.392 18.7583C134.04 18.7583 133.776 18.499 133.776 18.1964C133.776 17.8506 134.04 17.6345 134.392 17.6345C134.744 17.6345 135.008 17.8939 135.008 18.1964ZM133.864 23.5992V19.4066H134.964V23.5992H133.864Z" fill="black"/>
<path d="M139.407 22.5619C139.407 22.9509 139.407 23.2966 139.451 23.556H138.483L138.395 23.0805H138.351C138.087 23.4263 137.647 23.6424 137.075 23.6424C136.196 23.6424 135.712 23.0373 135.712 22.389C135.712 21.3084 136.679 20.7898 138.263 20.7898V20.7033C138.263 20.444 138.131 19.9685 137.383 19.9685C136.943 19.9685 136.503 20.0982 136.24 20.2711L136.02 19.5795C136.328 19.4067 136.899 19.1906 137.559 19.1906C138.923 19.1906 139.319 20.055 139.319 20.9627V22.5619H139.407ZM138.351 21.5245C137.603 21.5245 136.855 21.6542 136.855 22.3025C136.855 22.7348 137.119 22.9076 137.471 22.9076C137.911 22.9076 138.219 22.6483 138.307 22.3458C138.351 22.2593 138.351 22.1729 138.351 22.1296V21.5245Z" fill="black"/>
<path d="M140.551 17.4616H141.65V23.5992H140.551V17.4616Z" fill="black"/>
<path d="M143.982 18.1964C143.982 18.499 143.762 18.7583 143.366 18.7583C143.014 18.7583 142.75 18.499 142.75 18.1964C142.75 17.8506 143.014 17.6345 143.366 17.6345C143.762 17.6345 143.982 17.8939 143.982 18.1964ZM142.838 23.5992V19.4066H143.938V23.5992H142.838Z" fill="black"/>
<path d="M145.038 22.6051C145.302 22.7347 145.741 22.9076 146.137 22.9076C146.621 22.9076 146.841 22.7347 146.841 22.4322C146.841 22.1296 146.665 22 146.137 21.8271C145.302 21.5245 144.95 21.0923 144.95 20.6169C144.95 19.8821 145.566 19.277 146.577 19.277C147.061 19.277 147.457 19.4066 147.721 19.5363L147.501 20.2711C147.325 20.1846 146.973 20.0118 146.577 20.0118C146.181 20.0118 145.961 20.1846 145.961 20.444C145.961 20.7033 146.181 20.833 146.709 21.0491C147.501 21.3084 147.853 21.6974 147.853 22.3457C147.853 23.1237 147.237 23.6856 146.093 23.6856C145.566 23.6856 145.126 23.556 144.774 23.3831L145.038 22.6051Z" fill="black"/>
<path d="M150.009 18.2829V19.3634H151.02V20.1414H150.009V22.0432C150.009 22.5618 150.141 22.8212 150.58 22.8212C150.8 22.8212 150.888 22.8212 151.02 22.778V23.5992C150.844 23.6424 150.58 23.7288 150.229 23.7288C149.833 23.7288 149.481 23.5992 149.305 23.3831C149.085 23.1237 148.953 22.778 148.953 22.2161V20.2279H148.337V19.4499H148.953V18.5854L150.009 18.2829Z" fill="black"/>
<path d="M153 18.1964C153 18.499 152.78 18.7583 152.384 18.7583C152.032 18.7583 151.768 18.499 151.768 18.1964C151.768 17.8506 152.032 17.6345 152.384 17.6345C152.736 17.6345 153 17.8939 153 18.1964ZM151.856 23.5992V19.4066H152.956V23.5992H151.856Z" fill="black"/>
<path d="M55.164 32.1571C55.208 32.9351 55.7799 33.2377 56.4837 33.2377C56.9676 33.2377 57.3635 33.1512 57.6715 33.0648L57.8474 33.7995C57.4955 33.9292 56.9676 34.0589 56.3517 34.0589C54.944 34.0589 54.1522 33.1944 54.1522 31.941C54.1522 30.774 54.8561 29.6935 56.2638 29.6935C57.6715 29.6935 58.1114 30.8172 58.1114 31.7249C58.1114 31.941 58.1114 32.0707 58.0674 32.1571H55.164ZM57.0556 31.4223C57.0556 31.0333 56.8796 30.385 56.1758 30.385C55.5159 30.385 55.208 30.9901 55.164 31.4223H57.0556Z" fill="black"/>
<path d="M64.7105 27.8349V32.8055C64.7105 33.2377 64.7105 33.7131 64.7544 33.9725H63.7866L63.7427 33.3241C63.4787 33.7996 62.9508 34.1021 62.3349 34.1021C61.3232 34.1021 60.4873 33.2377 60.4873 31.941C60.4873 30.5147 61.3671 29.6935 62.4229 29.6935C62.9948 29.6935 63.4347 29.9528 63.6107 30.2554V27.8782H64.7105V27.8349ZM63.6107 31.5088C63.6107 31.4224 63.6107 31.3359 63.5667 31.2495C63.4787 30.8172 63.1268 30.5147 62.6429 30.5147C61.939 30.5147 61.5431 31.1198 61.5431 31.8978C61.5431 32.6758 61.939 33.2377 62.5989 33.2377C63.0388 33.2377 63.4347 32.9351 63.5227 32.5029C63.5667 32.4165 63.5667 32.2868 63.5667 32.2004V31.5088H63.6107Z" fill="black"/>
<path d="M66.6461 32.1571C66.69 32.9351 67.2619 33.2377 67.9658 33.2377C68.4497 33.2377 68.8456 33.1512 69.1535 33.0648L69.3295 33.7995C68.9776 33.9292 68.4497 34.0589 67.8338 34.0589C66.4261 34.0589 65.6343 33.1944 65.6343 31.941C65.6343 30.774 66.3381 29.6935 67.7458 29.6935C69.1535 29.6935 69.5934 30.8172 69.5934 31.7249C69.5934 31.941 69.5934 32.0707 69.5495 32.1571H66.6461ZM68.5377 31.4223C68.5377 31.0333 68.3617 30.385 67.6578 30.385C66.998 30.385 66.69 30.9901 66.6461 31.4223H68.5377Z" fill="black"/>
<path d="M74.3004 33.3674C74.3004 34.2318 74.1245 34.8801 73.6846 35.2691C73.2447 35.6581 72.6288 35.7878 72.0129 35.7878C71.485 35.7878 70.8692 35.6581 70.5172 35.442L70.7372 34.6208C71.0011 34.7937 71.485 34.9234 71.9689 34.9234C72.6728 34.9234 73.2007 34.5776 73.2007 33.6699V33.3241C72.9367 33.7131 72.4968 33.9292 71.9689 33.9292C70.9132 33.9292 70.1653 33.0648 70.1653 31.8546C70.1653 30.4715 71.0891 29.6503 72.1009 29.6503C72.7608 29.6503 73.1567 29.9528 73.3326 30.2986L73.3766 29.7367H74.3004C74.3004 30.0393 74.2564 30.385 74.2564 30.9469V33.3674H74.3004ZM73.2007 31.4224C73.2007 31.3359 73.2007 31.2063 73.1567 31.1198C73.0247 30.7308 72.7168 30.4283 72.2769 30.4283C71.661 30.4283 71.2211 30.9469 71.2211 31.8114C71.2211 32.5461 71.573 33.108 72.2769 33.108C72.6728 33.108 73.0247 32.8487 73.1567 32.4597C73.2007 32.33 73.2007 32.2004 73.2007 32.0707V31.4224Z" fill="black"/>
<path d="M75.4442 27.8349H76.544V33.9725H75.4442V27.8349Z" fill="black"/>
<path d="M78.8755 28.5697C78.8755 28.8723 78.6555 29.1316 78.2596 29.1316C77.9077 29.1316 77.6438 28.8723 77.6438 28.5697C77.6438 28.2239 77.9077 28.0078 78.2596 28.0078C78.6116 28.0078 78.8755 28.2671 78.8755 28.5697ZM77.7317 33.9725V29.7799H78.8315V33.9725H77.7317Z" fill="black"/>
<path d="M85.1662 31.3792H82.9226V33.108H85.4301V33.9725H81.8229V28.1375H85.2542V29.002H82.8787V30.5147H85.1222V31.3792H85.1662Z" fill="black"/>
<path d="M86.3099 32.9784C86.5739 33.108 87.0138 33.2809 87.4097 33.2809C87.8936 33.2809 88.1136 33.108 88.1136 32.8055C88.1136 32.5029 87.9376 32.3733 87.4097 32.2004C86.5739 31.8978 86.222 31.4656 86.222 30.9901C86.222 30.2554 86.8378 29.6503 87.8496 29.6503C88.3335 29.6503 88.7294 29.7799 88.9934 29.9096L88.7734 30.6444C88.5975 30.5579 88.2455 30.385 87.8496 30.385C87.4537 30.385 87.2337 30.5579 87.2337 30.8173C87.2337 31.0766 87.4537 31.2063 87.9816 31.4224C88.7734 31.6817 89.1254 32.0707 89.1254 32.719C89.1254 33.497 88.5095 34.0589 87.3657 34.0589C86.8378 34.0589 86.3979 33.9292 86.046 33.7564L86.3099 32.9784Z" fill="black"/>
<path d="M90.0052 31.163C90.0052 30.6011 90.0052 30.1689 89.9612 29.7799H90.929L90.973 30.4282C91.2809 29.9528 91.8088 29.6935 92.4247 29.6935C93.3925 29.6935 94.2283 30.5147 94.2283 31.8545C94.2283 33.3673 93.2605 34.1021 92.2927 34.1021C91.7648 34.1021 91.3249 33.886 91.1049 33.5402V35.7013H90.0052V31.163ZM91.1049 32.2003C91.1049 32.2868 91.1049 32.4164 91.1489 32.5029C91.2369 32.9351 91.6328 33.2377 92.1167 33.2377C92.8206 33.2377 93.2165 32.6758 93.2165 31.8545C93.2165 31.1198 92.8646 30.5147 92.1607 30.5147C91.7208 30.5147 91.2809 30.8172 91.1929 31.2927C91.1489 31.3791 91.1489 31.4656 91.1489 31.552V32.2003H91.1049Z" fill="black"/>
<path d="M95.9439 32.1571C95.9879 32.9351 96.5598 33.2377 97.2636 33.2377C97.7475 33.2377 98.1435 33.1512 98.4514 33.0648L98.6273 33.7995C98.2754 33.9292 97.7475 34.0589 97.1317 34.0589C95.724 34.0589 94.9321 33.1944 94.9321 31.941C94.9321 30.774 95.636 29.6935 97.0437 29.6935C98.4514 29.6935 98.8913 30.8172 98.8913 31.7249C98.8913 31.941 98.8913 32.0707 98.8473 32.1571H95.9439ZM97.7915 31.4223C97.7915 31.0333 97.6156 30.385 96.9117 30.385C96.2519 30.385 95.9439 30.9901 95.8999 31.4223H97.7915Z" fill="black"/>
<path d="M99.6831 31.1198C99.6831 30.5579 99.6831 30.1257 99.6392 29.7799H100.563L100.607 30.6011H100.651C100.871 29.996 101.355 29.6935 101.839 29.6935C101.927 29.6935 102.015 29.6935 102.103 29.7367V30.6876C102.015 30.6876 101.927 30.6443 101.795 30.6443C101.267 30.6443 100.915 30.9901 100.827 31.4656C100.827 31.552 100.783 31.6817 100.783 31.8113V33.9724H99.6831V31.1198Z" fill="black"/>
<path d="M104.258 28.6562V29.7367H105.27V30.5147H104.258V32.4165C104.258 32.9352 104.39 33.1945 104.83 33.1945C105.05 33.1945 105.138 33.1945 105.27 33.1513V33.9725C105.094 34.0157 104.83 34.1022 104.478 34.1022C104.082 34.1022 103.73 33.9725 103.554 33.7564C103.334 33.4971 103.202 33.1513 103.202 32.5894V30.6012H102.587V29.8232H103.202V28.9587L104.258 28.6562Z" fill="black"/>
<path d="M107.294 28.5697C107.294 28.8723 107.074 29.1316 106.678 29.1316C106.326 29.1316 106.062 28.8723 106.062 28.5697C106.062 28.2239 106.326 28.0078 106.678 28.0078C107.03 28.0078 107.25 28.2671 107.294 28.5697ZM106.106 33.9725V29.7799H107.206V33.9725H106.106Z" fill="black"/>
<path d="M114.508 33.7996C114.244 33.9292 113.672 34.0589 112.968 34.0589C111.077 34.0589 109.933 32.8919 109.933 31.1198C109.933 29.218 111.297 28.0511 113.1 28.0511C113.804 28.0511 114.332 28.1807 114.552 28.3104L114.332 29.1748C114.068 29.0452 113.672 28.9587 113.188 28.9587C112.001 28.9587 111.121 29.6935 111.121 31.1198C111.121 32.4165 111.869 33.2377 113.188 33.2377C113.628 33.2377 114.068 33.1513 114.376 33.0216L114.508 33.7996Z" fill="black"/>
<path d="M119.303 31.8114C119.303 33.3674 118.203 34.0589 117.104 34.0589C115.872 34.0589 114.948 33.2377 114.948 31.8978C114.948 30.5147 115.872 29.6503 117.147 29.6503C118.467 29.6503 119.303 30.5579 119.303 31.8114ZM116.092 31.8546C116.092 32.6758 116.488 33.2809 117.147 33.2809C117.763 33.2809 118.203 32.6758 118.203 31.8546C118.203 31.2063 117.895 30.4283 117.147 30.4283C116.4 30.4283 116.092 31.163 116.092 31.8546Z" fill="black"/>
<path d="M120.183 30.9901C120.183 30.5147 120.183 30.0825 120.139 29.7367H121.107L121.151 30.385H121.195C121.371 30.0393 121.855 29.6503 122.558 29.6503C123.306 29.6503 124.098 30.1257 124.098 31.4656V33.9725H122.998V31.5953C122.998 30.9901 122.778 30.5147 122.162 30.5147C121.723 30.5147 121.415 30.8173 121.327 31.1198C121.283 31.2063 121.283 31.3359 121.283 31.4656V33.9292H120.183V30.9901Z" fill="black"/>
<path d="M126.43 28.6562V29.7367H127.441V30.5147H126.43V32.4165C126.43 32.9352 126.562 33.1945 127.001 33.1945C127.221 33.1945 127.309 33.1945 127.441 33.1513V33.9725C127.265 34.0157 127.001 34.1022 126.649 34.1022C126.254 34.1022 125.902 33.9725 125.726 33.7564C125.506 33.4971 125.374 33.1513 125.374 32.5894V30.6012H124.758V29.8232H125.374V28.9587L126.43 28.6562Z" fill="black"/>
<path d="M131.576 32.9352C131.576 33.3242 131.576 33.6699 131.62 33.9293H130.653L130.565 33.4538H130.521C130.257 33.7996 129.817 34.0157 129.245 34.0157C128.365 34.0157 127.881 33.4106 127.881 32.7623C127.881 31.6817 128.849 31.1631 130.433 31.1631V31.0766C130.433 30.8173 130.301 30.3418 129.553 30.3418C129.113 30.3418 128.673 30.4715 128.409 30.6444L128.189 29.9528C128.497 29.78 129.069 29.5638 129.729 29.5638C131.093 29.5638 131.488 30.4283 131.488 31.3359V32.9352H131.576ZM130.521 31.8978C129.773 31.8978 129.025 32.0275 129.025 32.6758C129.025 33.108 129.289 33.2809 129.641 33.2809C130.081 33.2809 130.389 33.0216 130.477 32.719C130.521 32.6326 130.521 32.5462 130.521 32.5029V31.8978Z" fill="black"/>
<path d="M132.72 27.8349H133.82V30.3418C134.084 29.9528 134.568 29.6503 135.184 29.6503C136.239 29.6503 136.987 30.5147 136.987 31.7681C136.987 33.2809 136.02 34.0157 135.052 34.0157C134.48 34.0157 133.996 33.7996 133.688 33.2809L133.644 33.9292H132.72C132.72 33.6267 132.764 33.1945 132.764 32.7622V27.8349H132.72ZM133.82 32.2436C133.82 32.33 133.82 32.4165 133.864 32.5029C133.996 32.9351 134.348 33.2377 134.832 33.2377C135.492 33.2377 135.932 32.719 135.932 31.8546C135.932 31.1198 135.58 30.5147 134.832 30.5147C134.392 30.5147 133.996 30.8172 133.864 31.2927C133.864 31.3791 133.82 31.4656 133.82 31.552V32.2436Z" fill="black"/>
<path d="M139.055 28.5697C139.055 28.8723 138.835 29.1316 138.439 29.1316C138.087 29.1316 137.823 28.8723 137.823 28.5697C137.823 28.2239 138.087 28.0078 138.439 28.0078C138.791 28.0078 139.011 28.2671 139.055 28.5697ZM137.867 33.9725V29.7799H138.967V33.9725H137.867Z" fill="black"/>
<path d="M140.155 27.8349H141.254V33.9725H140.155V27.8349Z" fill="black"/>
<path d="M143.542 28.5697C143.542 28.8723 143.322 29.1316 142.926 29.1316C142.574 29.1316 142.31 28.8723 142.31 28.5697C142.31 28.2239 142.574 28.0078 142.926 28.0078C143.322 28.0078 143.542 28.2671 143.542 28.5697ZM142.398 33.9725V29.7799H143.498V33.9725H142.398Z" fill="black"/>
</g>
<defs>
<clipPath id="clip0_114_5">
<rect width="153" height="44" fill="white"/>
</clipPath>
</defs>
</svg>
